G04*
G04 #@! TF.GenerationSoftware,Altium Limited,Altium Designer,22.2.1 (43)*
G04*
G04 Layer_Color=16711935*
%FSLAX25Y25*%
%MOIN*%
G70*
G04*
G04 #@! TF.SameCoordinates,4D9873E2-C187-445E-AA94-CFDCCC1DA697*
G04*
G04*
G04 #@! TF.FilePolarity,Negative*
G04*
G01*
G75*
%ADD59C,0.05524*%
%ADD60R,0.05524X0.05524*%
%ADD61R,0.08477X0.08477*%
%ADD62C,0.08477*%
%ADD63R,0.08477X0.08477*%
%ADD64C,0.06102*%
%ADD65R,0.06102X0.06102*%
%ADD66C,0.24422*%
%ADD80C,0.03200*%
%ADD81C,0.05800*%
D59*
X166000Y28000D02*
D03*
X153402D02*
D03*
Y36661D02*
D03*
X166000D02*
D03*
X153402Y19339D02*
D03*
X166000D02*
D03*
Y49260D02*
D03*
X120000Y19339D02*
D03*
X132598D02*
D03*
X53402Y28000D02*
D03*
X66000D02*
D03*
X87402D02*
D03*
X100000Y36661D02*
D03*
X120000D02*
D03*
X132598D02*
D03*
X66000Y49260D02*
D03*
Y36661D02*
D03*
Y19339D02*
D03*
X53402D02*
D03*
Y36661D02*
D03*
X132598Y49260D02*
D03*
Y28000D02*
D03*
X120000D02*
D03*
X100000Y49260D02*
D03*
Y28000D02*
D03*
Y19339D02*
D03*
X87402D02*
D03*
Y36661D02*
D03*
D60*
X153402Y49260D02*
D03*
X53402D02*
D03*
X120000D02*
D03*
X87402D02*
D03*
D61*
X16772Y43839D02*
D03*
Y71398D02*
D03*
X261181Y38110D02*
D03*
D62*
X16772Y57618D02*
D03*
X56102Y162598D02*
D03*
X16772Y30059D02*
D03*
X261181Y51890D02*
D03*
D63*
X69882Y162598D02*
D03*
D64*
X118110Y171417D02*
D03*
Y161417D02*
D03*
D65*
Y151417D02*
D03*
D66*
X11811Y11811D02*
D03*
Y165354D02*
D03*
X263779D02*
D03*
Y11811D02*
D03*
D80*
X216333Y82000D02*
D03*
X206333D02*
D03*
X209667D02*
D03*
X219667D02*
D03*
X223000D02*
D03*
X213000D02*
D03*
X203000D02*
D03*
X226333D02*
D03*
X229667D02*
D03*
X233000D02*
D03*
X236333D02*
D03*
X241333Y91000D02*
D03*
X251333Y89000D02*
D03*
X127000Y117000D02*
D03*
X273000Y82000D02*
D03*
X269667D02*
D03*
X266333D02*
D03*
X263000D02*
D03*
X259667D02*
D03*
X256333D02*
D03*
X246333D02*
D03*
X253000D02*
D03*
X249667D02*
D03*
X243000D02*
D03*
X239667D02*
D03*
X232000Y73000D02*
D03*
X228700D02*
D03*
X225400D02*
D03*
X222100D02*
D03*
X218800D02*
D03*
X215500D02*
D03*
X212200D02*
D03*
X208900D02*
D03*
X205600D02*
D03*
X202300D02*
D03*
X199000D02*
D03*
X2000Y128000D02*
D03*
Y124000D02*
D03*
X5000D02*
D03*
X11600D02*
D03*
X14800D02*
D03*
X18000D02*
D03*
X21000D02*
D03*
X28000D02*
D03*
X31000D02*
D03*
X34000D02*
D03*
X38000Y122000D02*
D03*
X41333D02*
D03*
X44667D02*
D03*
X48000D02*
D03*
X51333D02*
D03*
X54667D02*
D03*
X58000D02*
D03*
X61000Y120000D02*
D03*
Y117000D02*
D03*
Y113250D02*
D03*
Y109500D02*
D03*
Y105750D02*
D03*
Y98250D02*
D03*
Y102000D02*
D03*
Y94500D02*
D03*
Y90750D02*
D03*
Y87000D02*
D03*
Y83250D02*
D03*
Y79500D02*
D03*
Y75750D02*
D03*
Y72000D02*
D03*
X65000Y75000D02*
D03*
X67000Y78000D02*
D03*
X118000Y105000D02*
D03*
Y102125D02*
D03*
Y99250D02*
D03*
Y96375D02*
D03*
Y93500D02*
D03*
Y90625D02*
D03*
Y87750D02*
D03*
Y84875D02*
D03*
Y82000D02*
D03*
X116000Y80000D02*
D03*
X112111D02*
D03*
X108222D02*
D03*
X104333D02*
D03*
X100444D02*
D03*
X96556D02*
D03*
X88778D02*
D03*
X92667D02*
D03*
X84889D02*
D03*
X81000D02*
D03*
X167000Y117000D02*
D03*
X162000D02*
D03*
X157000D02*
D03*
X152000D02*
D03*
X147000D02*
D03*
X142000D02*
D03*
X137000D02*
D03*
X132000D02*
D03*
X122000D02*
D03*
X199000Y82000D02*
D03*
Y85000D02*
D03*
Y88000D02*
D03*
Y91000D02*
D03*
Y94000D02*
D03*
Y97000D02*
D03*
Y100000D02*
D03*
Y103000D02*
D03*
Y106000D02*
D03*
Y109000D02*
D03*
Y112000D02*
D03*
X87000Y105000D02*
D03*
X150500Y136500D02*
D03*
X205541Y138979D02*
D03*
X180500Y135500D02*
D03*
X202500Y140500D02*
D03*
X193500Y143500D02*
D03*
X186500Y160500D02*
D03*
X181000Y161000D02*
D03*
X178500Y153500D02*
D03*
X164000Y146000D02*
D03*
X127500Y132100D02*
D03*
X103000Y92000D02*
D03*
X102500Y118000D02*
D03*
X161500Y156500D02*
D03*
X174500Y173500D02*
D03*
X105000Y124000D02*
D03*
X166500Y173500D02*
D03*
X171000Y161500D02*
D03*
X197000Y138500D02*
D03*
X53000Y66500D02*
D03*
X173036Y86465D02*
D03*
X173000Y94500D02*
D03*
X158000Y64000D02*
D03*
X161800Y65562D02*
D03*
X117000Y57000D02*
D03*
X113500Y56000D02*
D03*
X66000Y70500D02*
D03*
X72835Y81210D02*
D03*
X139500Y64000D02*
D03*
X93500Y50500D02*
D03*
X73000Y42500D02*
D03*
X47500Y38500D02*
D03*
X62000Y140000D02*
D03*
X87000Y127000D02*
D03*
X78000Y107000D02*
D03*
X70000Y97000D02*
D03*
Y121000D02*
D03*
D81*
X7874Y112205D02*
D03*
X45000Y172000D02*
D03*
M02*
