G04*
G04 #@! TF.GenerationSoftware,Altium Limited,Altium Designer,22.2.1 (43)*
G04*
G04 Layer_Color=32896*
%FSLAX25Y25*%
%MOIN*%
G70*
G04*
G04 #@! TF.SameCoordinates,4D9873E2-C187-445E-AA94-CFDCCC1DA697*
G04*
G04*
G04 #@! TF.FilePolarity,Positive*
G04*
G01*
G75*
%ADD77C,0.02400*%
%ADD79C,0.05000*%
D77*
X70000Y121000D02*
D03*
Y97000D02*
D03*
X78000Y107000D02*
D03*
X87000Y127000D02*
D03*
X62000Y140000D02*
D03*
X47500Y38500D02*
D03*
X73000Y42500D02*
D03*
X93500Y50500D02*
D03*
X139500Y64000D02*
D03*
X72835Y81210D02*
D03*
X66000Y70500D02*
D03*
X113500Y56000D02*
D03*
X117000Y57000D02*
D03*
X161800Y65562D02*
D03*
X158000Y64000D02*
D03*
X173000Y94500D02*
D03*
X173036Y86465D02*
D03*
X53000Y66500D02*
D03*
X197000Y138500D02*
D03*
X171000Y161500D02*
D03*
X166500Y173500D02*
D03*
X105000Y124000D02*
D03*
X174500Y173500D02*
D03*
X161500Y156500D02*
D03*
X102500Y118000D02*
D03*
X103000Y92000D02*
D03*
X127500Y132100D02*
D03*
X164000Y146000D02*
D03*
X178500Y153500D02*
D03*
X181000Y161000D02*
D03*
X186500Y160500D02*
D03*
X193500Y143500D02*
D03*
X202500Y140500D02*
D03*
X180500Y135500D02*
D03*
X205541Y138979D02*
D03*
X150500Y136500D02*
D03*
X87000Y105000D02*
D03*
X199000Y112000D02*
D03*
Y109000D02*
D03*
Y106000D02*
D03*
Y103000D02*
D03*
Y100000D02*
D03*
Y97000D02*
D03*
Y94000D02*
D03*
Y91000D02*
D03*
Y88000D02*
D03*
Y85000D02*
D03*
Y82000D02*
D03*
X122000Y117000D02*
D03*
X132000D02*
D03*
X137000D02*
D03*
X142000D02*
D03*
X147000D02*
D03*
X152000D02*
D03*
X157000D02*
D03*
X162000D02*
D03*
X167000D02*
D03*
X81000Y80000D02*
D03*
X84889D02*
D03*
X92667D02*
D03*
X88778D02*
D03*
X96556D02*
D03*
X100444D02*
D03*
X104333D02*
D03*
X108222D02*
D03*
X112111D02*
D03*
X116000D02*
D03*
X118000Y82000D02*
D03*
Y84875D02*
D03*
Y87750D02*
D03*
Y90625D02*
D03*
Y93500D02*
D03*
Y96375D02*
D03*
Y99250D02*
D03*
Y102125D02*
D03*
Y105000D02*
D03*
X67000Y78000D02*
D03*
X65000Y75000D02*
D03*
X61000Y72000D02*
D03*
Y75750D02*
D03*
Y79500D02*
D03*
Y83250D02*
D03*
Y87000D02*
D03*
Y90750D02*
D03*
Y94500D02*
D03*
Y102000D02*
D03*
Y98250D02*
D03*
Y105750D02*
D03*
Y109500D02*
D03*
Y113250D02*
D03*
Y117000D02*
D03*
Y120000D02*
D03*
X58000Y122000D02*
D03*
X54667D02*
D03*
X51333D02*
D03*
X48000D02*
D03*
X44667D02*
D03*
X41333D02*
D03*
X38000D02*
D03*
X34000Y124000D02*
D03*
X31000D02*
D03*
X28000D02*
D03*
X21000D02*
D03*
X18000D02*
D03*
X14800D02*
D03*
X11600D02*
D03*
X5000D02*
D03*
X2000D02*
D03*
Y128000D02*
D03*
X199000Y73000D02*
D03*
X202300D02*
D03*
X205600D02*
D03*
X208900D02*
D03*
X212200D02*
D03*
X215500D02*
D03*
X218800D02*
D03*
X222100D02*
D03*
X225400D02*
D03*
X228700D02*
D03*
X232000D02*
D03*
X239667Y82000D02*
D03*
X243000D02*
D03*
X249667D02*
D03*
X253000D02*
D03*
X246333D02*
D03*
X256333D02*
D03*
X259667D02*
D03*
X263000D02*
D03*
X266333D02*
D03*
X269667D02*
D03*
X273000D02*
D03*
X127000Y117000D02*
D03*
X251333Y89000D02*
D03*
X241333Y91000D02*
D03*
X236333Y82000D02*
D03*
X233000D02*
D03*
X229667D02*
D03*
X226333D02*
D03*
X203000D02*
D03*
X213000D02*
D03*
X223000D02*
D03*
X219667D02*
D03*
X209667D02*
D03*
X206333D02*
D03*
X216333D02*
D03*
D79*
X45000Y172000D02*
D03*
X7874Y112205D02*
D03*
M02*
