G04*
G04 #@! TF.GenerationSoftware,Altium Limited,Altium Designer,22.2.1 (43)*
G04*
G04 Layer_Color=8388736*
%FSLAX25Y25*%
%MOIN*%
G70*
G04*
G04 #@! TF.SameCoordinates,4D9873E2-C187-445E-AA94-CFDCCC1DA697*
G04*
G04*
G04 #@! TF.FilePolarity,Negative*
G04*
G01*
G75*
%ADD38R,0.03241X0.02454*%
%ADD39R,0.06115X0.05131*%
%ADD40R,0.02769X0.02670*%
%ADD41R,0.02454X0.03241*%
%ADD42R,0.03162X0.03753*%
%ADD43R,0.08280X0.13398*%
%ADD44R,0.08280X0.04540*%
%ADD45R,0.03556X0.03556*%
G04:AMPARAMS|DCode=46|XSize=33.59mil|YSize=72.96mil|CornerRadius=5.92mil|HoleSize=0mil|Usage=FLASHONLY|Rotation=270.000|XOffset=0mil|YOffset=0mil|HoleType=Round|Shape=RoundedRectangle|*
%AMROUNDEDRECTD46*
21,1,0.03359,0.06112,0,0,270.0*
21,1,0.02175,0.07296,0,0,270.0*
1,1,0.01184,-0.03056,-0.01088*
1,1,0.01184,-0.03056,0.01088*
1,1,0.01184,0.03056,0.01088*
1,1,0.01184,0.03056,-0.01088*
%
%ADD46ROUNDEDRECTD46*%
%ADD47R,0.02670X0.02769*%
G04:AMPARAMS|DCode=48|XSize=31.62mil|YSize=65.09mil|CornerRadius=6.01mil|HoleSize=0mil|Usage=FLASHONLY|Rotation=180.000|XOffset=0mil|YOffset=0mil|HoleType=Round|Shape=RoundedRectangle|*
%AMROUNDEDRECTD48*
21,1,0.03162,0.05307,0,0,180.0*
21,1,0.01961,0.06509,0,0,180.0*
1,1,0.01202,-0.00980,0.02653*
1,1,0.01202,0.00980,0.02653*
1,1,0.01202,0.00980,-0.02653*
1,1,0.01202,-0.00980,-0.02653*
%
%ADD48ROUNDEDRECTD48*%
%ADD49R,0.03162X0.03556*%
%ADD50R,0.05249X0.10406*%
%ADD51R,0.08674X0.03359*%
%ADD52R,0.10209X0.13398*%
%ADD53R,0.03359X0.07296*%
%ADD54R,0.05131X0.05721*%
%ADD55R,0.06312X0.04343*%
%ADD56R,0.08674X0.07099*%
%ADD57R,0.07099X0.03359*%
%ADD58R,0.03556X0.03162*%
%ADD59C,0.05524*%
%ADD60R,0.05524X0.05524*%
%ADD61R,0.08477X0.08477*%
%ADD62C,0.08477*%
%ADD63R,0.08477X0.08477*%
%ADD64C,0.06102*%
%ADD65R,0.06102X0.06102*%
%ADD66C,0.24422*%
D38*
X41000Y44000D02*
D03*
Y39669D02*
D03*
X135000Y139331D02*
D03*
Y135000D02*
D03*
X130000Y139331D02*
D03*
Y135000D02*
D03*
X159000Y88500D02*
D03*
Y92831D02*
D03*
X65000Y97000D02*
D03*
Y101331D02*
D03*
X69000Y114399D02*
D03*
Y110068D02*
D03*
X125000Y139331D02*
D03*
Y135000D02*
D03*
X52000Y98165D02*
D03*
Y93835D02*
D03*
X46567Y98165D02*
D03*
Y93835D02*
D03*
X7567Y99165D02*
D03*
Y94835D02*
D03*
D39*
X55118Y140354D02*
D03*
Y127362D02*
D03*
D40*
X199500Y59035D02*
D03*
Y55000D02*
D03*
X167500Y62500D02*
D03*
Y66535D02*
D03*
X159500Y74000D02*
D03*
Y69964D02*
D03*
X205000Y53500D02*
D03*
Y57535D02*
D03*
X194500Y53465D02*
D03*
Y57500D02*
D03*
X208000Y143969D02*
D03*
Y148000D02*
D03*
X204000Y143965D02*
D03*
Y148000D02*
D03*
X196000Y143982D02*
D03*
Y148018D02*
D03*
X94488Y149656D02*
D03*
Y145620D02*
D03*
X108268Y145575D02*
D03*
Y149606D02*
D03*
X200000Y143965D02*
D03*
Y148000D02*
D03*
X215500Y60000D02*
D03*
Y64035D02*
D03*
X197000Y130000D02*
D03*
Y134032D02*
D03*
D41*
X95165Y11000D02*
D03*
X90835D02*
D03*
X62669Y126000D02*
D03*
X67000D02*
D03*
X29000Y88000D02*
D03*
X24669D02*
D03*
X166665Y70000D02*
D03*
X162335D02*
D03*
X33000Y120000D02*
D03*
X28669D02*
D03*
X218165Y113000D02*
D03*
X213835D02*
D03*
D42*
X45000Y160000D02*
D03*
Y164331D02*
D03*
D43*
X15551Y137795D02*
D03*
D44*
X39567Y146850D02*
D03*
Y137795D02*
D03*
Y128740D02*
D03*
D45*
X27244Y163000D02*
D03*
X32756D02*
D03*
D46*
X16272Y109569D02*
D03*
Y104569D02*
D03*
Y99569D02*
D03*
Y94569D02*
D03*
X38516Y109569D02*
D03*
Y104569D02*
D03*
Y99569D02*
D03*
Y94569D02*
D03*
D47*
X174982Y69000D02*
D03*
X179018D02*
D03*
D48*
X166500Y75272D02*
D03*
X171500D02*
D03*
X176500D02*
D03*
X181500D02*
D03*
X166500Y96728D02*
D03*
X171500D02*
D03*
X176500D02*
D03*
X181500D02*
D03*
D49*
X254000Y91000D02*
D03*
Y95331D02*
D03*
X244000Y90669D02*
D03*
Y95000D02*
D03*
X264000Y90835D02*
D03*
Y95165D02*
D03*
X215500Y51669D02*
D03*
Y56000D02*
D03*
X224500Y43669D02*
D03*
Y48000D02*
D03*
X229500Y43669D02*
D03*
Y48000D02*
D03*
X187000Y83835D02*
D03*
Y88165D02*
D03*
D50*
X214724Y42835D02*
D03*
X204724D02*
D03*
X194724D02*
D03*
Y8937D02*
D03*
X204724D02*
D03*
X214724D02*
D03*
X244000Y109051D02*
D03*
X254000D02*
D03*
X264000D02*
D03*
Y142949D02*
D03*
X254000D02*
D03*
X244000D02*
D03*
D51*
X96311Y86626D02*
D03*
Y91626D02*
D03*
Y96626D02*
D03*
Y101626D02*
D03*
X76823D02*
D03*
Y96626D02*
D03*
Y91626D02*
D03*
Y86626D02*
D03*
X96630Y111000D02*
D03*
Y116000D02*
D03*
Y121000D02*
D03*
Y126000D02*
D03*
X77142D02*
D03*
Y121000D02*
D03*
Y116000D02*
D03*
Y111000D02*
D03*
D52*
X86567Y94126D02*
D03*
X86886Y118500D02*
D03*
D53*
X141311Y167366D02*
D03*
X146311D02*
D03*
X151311D02*
D03*
X156311D02*
D03*
X161311D02*
D03*
X166311D02*
D03*
X171311D02*
D03*
X176311D02*
D03*
X181311D02*
D03*
X186311D02*
D03*
Y129768D02*
D03*
X181311D02*
D03*
X176311D02*
D03*
X171311D02*
D03*
X166311D02*
D03*
X161311D02*
D03*
X156311D02*
D03*
X151311D02*
D03*
X146311D02*
D03*
X141311D02*
D03*
D54*
X226378Y159449D02*
D03*
Y168701D02*
D03*
X108268Y166043D02*
D03*
Y156791D02*
D03*
X94488Y166043D02*
D03*
Y156791D02*
D03*
D55*
X216535Y168898D02*
D03*
Y161417D02*
D03*
X206693Y168898D02*
D03*
Y161417D02*
D03*
X196850Y168898D02*
D03*
Y161417D02*
D03*
D56*
X205748Y130000D02*
D03*
X227008D02*
D03*
D57*
X150031Y78500D02*
D03*
Y83500D02*
D03*
Y88500D02*
D03*
Y93500D02*
D03*
X128969D02*
D03*
Y88500D02*
D03*
Y83500D02*
D03*
Y78500D02*
D03*
D58*
X176831Y105000D02*
D03*
X172500D02*
D03*
D59*
X166000Y28000D02*
D03*
X153402D02*
D03*
Y36661D02*
D03*
X166000D02*
D03*
X153402Y19339D02*
D03*
X166000D02*
D03*
Y49260D02*
D03*
X120000Y19339D02*
D03*
X132598D02*
D03*
X53402Y28000D02*
D03*
X66000D02*
D03*
X87402D02*
D03*
X100000Y36661D02*
D03*
X120000D02*
D03*
X132598D02*
D03*
X66000Y49260D02*
D03*
Y36661D02*
D03*
Y19339D02*
D03*
X53402D02*
D03*
Y36661D02*
D03*
X132598Y49260D02*
D03*
Y28000D02*
D03*
X120000D02*
D03*
X100000Y49260D02*
D03*
Y28000D02*
D03*
Y19339D02*
D03*
X87402D02*
D03*
Y36661D02*
D03*
D60*
X153402Y49260D02*
D03*
X53402D02*
D03*
X120000D02*
D03*
X87402D02*
D03*
D61*
X16772Y43839D02*
D03*
Y71398D02*
D03*
X261181Y38110D02*
D03*
D62*
X16772Y57618D02*
D03*
X56102Y162598D02*
D03*
X16772Y30059D02*
D03*
X261181Y51890D02*
D03*
D63*
X69882Y162598D02*
D03*
D64*
X118110Y171417D02*
D03*
Y161417D02*
D03*
D65*
Y151417D02*
D03*
D66*
X11811Y11811D02*
D03*
Y165354D02*
D03*
X263779D02*
D03*
Y11811D02*
D03*
M02*
