M48
;Layer_Color=9474304
;FILE_FORMAT=2:4
INCH,TZ
;TYPE=PLATED
T1F00S00C0.0120
T2F00S00C0.0280
T3F00S00C0.0295
T4F00S00C0.0394
T5F00S00C0.0512
T6F00S00C0.1339
%
T01
X4750Y3850
X7300Y4250
X9350Y5050
X11350Y5600
X11700Y5700
X11600Y8000
X11211
X10822
X10433
X10044
X9656
X9267
X8878
X8489
X8100
X7283Y8121
X6700Y7800
X6500Y7500
X6100Y7575
Y7950
Y8325
Y8700
Y9075
Y9450
Y9825
Y10200
Y10575
Y10950
Y11325
Y11700
Y12000
X5800Y12200
X5467
X5133
X4800
X4467
X4133
X3800
X3400Y12400
X3100
X2800
X2100
X1800
X1480
X1160
X500
X200
Y12800
X6200Y14000
X7000Y12100
X7800Y10700
X8700Y10500
Y12700
X10500Y12400
X10250Y11800
X12200Y11700
X12700
X13200
X13700
X14200
X14700
X15200
X15050Y13650
X12750Y13210
X11800Y10500
Y10213
Y9925
Y9638
Y9350
Y9062
Y8775
Y8487
Y8200
X10300Y9200
X7000Y9700
X6600Y7050
X6100Y7200
X5300Y6650
X13950Y6400
X15800
X16180Y6556
X17304Y8646
X17300Y9450
X19900Y9400
Y9100
Y8800
Y8500
Y8200
X20300
X20633
X20967
X21300
X21633
X21967
X22300
X22633
X22967
X23300
X23633
X23967
X24300
X24633
X24967
X25300
X25633
X25967
X26300
X26633
X26967
X27300
X25133Y8900
X24133Y9100
X23200Y7300
X22870
X22540
X22210
X21880
X21550
X21220
X20890
X20560
X20230
X19900
Y9700
Y10000
Y10300
Y10600
Y10900
Y11200
X19700Y13850
X20250Y14050
X20554Y13898
X19350Y14350
X18050Y13550
X17850Y15350
X16400Y14600
X16200Y11700
X16700
X15700
X16150Y15650
X17100Y16150
X18100Y16100
X18650Y16050
X17450Y17350
X16650
T02
X787Y11220
X4500Y17200
T03
X5340Y1934
Y2800
Y3666
X6600
Y2800
Y1934
X8740
Y2800
Y3666
X10000
Y2800
Y1934
X12000
Y2800
Y3666
X13260
Y2800
Y1934
X15340
Y2800
Y3666
Y4926
X13260
X12000
X10000
X8740
X6600
X5340
X16600
Y3666
Y2800
Y1934
T04
X11811Y15142
Y16142
Y17142
T05
X1677Y3006
Y4384
Y5762
Y7140
X26118Y5189
Y3811
X6988Y16260
X5610
T06
X1181Y1181
X26378
Y16535
X1181
M30
