G04*
G04 #@! TF.GenerationSoftware,Altium Limited,Altium Designer,22.2.1 (43)*
G04*
G04 Layer_Physical_Order=2*
G04 Layer_Color=16711680*
%FSLAX25Y25*%
%MOIN*%
G70*
G04*
G04 #@! TF.SameCoordinates,4D9873E2-C187-445E-AA94-CFDCCC1DA697*
G04*
G04*
G04 #@! TF.FilePolarity,Positive*
G04*
G01*
G75*
%ADD64C,0.06102*%
%ADD65R,0.06102X0.06102*%
%ADD67C,0.01000*%
%ADD68C,0.01500*%
%ADD69C,0.01400*%
%ADD72C,0.04724*%
%ADD73R,0.04724X0.04724*%
%ADD74R,0.07677X0.07677*%
%ADD75C,0.07677*%
%ADD76R,0.07677X0.07677*%
%ADD77C,0.02400*%
%ADD78C,0.23622*%
%ADD79C,0.05000*%
G36*
X275590D02*
X0D01*
Y177165D01*
X275590D01*
Y0D01*
D02*
G37*
%LPC*%
G36*
X118644Y175469D02*
X118610D01*
Y171917D01*
X122161D01*
Y171951D01*
X121885Y172981D01*
X121352Y173905D01*
X120598Y174659D01*
X119674Y175192D01*
X118644Y175469D01*
D02*
G37*
G36*
X117610D02*
X117577D01*
X116546Y175192D01*
X115623Y174659D01*
X114868Y173905D01*
X114335Y172981D01*
X114059Y171951D01*
Y171917D01*
X117610D01*
Y175469D01*
D02*
G37*
G36*
X174858Y175300D02*
X174142D01*
X173480Y175026D01*
X172974Y174520D01*
X172700Y173858D01*
Y173142D01*
X172974Y172480D01*
X173175Y172280D01*
Y162260D01*
X172675Y162161D01*
X172526Y162520D01*
X172020Y163026D01*
X171358Y163300D01*
X170642D01*
X169980Y163026D01*
X169780Y162826D01*
X165672D01*
X165374Y163025D01*
X164867Y163126D01*
X142800D01*
X142558Y163077D01*
X142311Y163538D01*
X150948Y172175D01*
X165280D01*
X165480Y171974D01*
X166142Y171700D01*
X166858D01*
X167520Y171974D01*
X168026Y172480D01*
X168300Y173142D01*
Y173858D01*
X168026Y174520D01*
X167520Y175026D01*
X166858Y175300D01*
X166142D01*
X165480Y175026D01*
X165280Y174826D01*
X150399D01*
X149892Y174725D01*
X149461Y174437D01*
X101163Y126138D01*
X100875Y125708D01*
X100775Y125201D01*
Y118671D01*
X100792Y118581D01*
X100700Y118358D01*
Y117642D01*
X100974Y116980D01*
X101480Y116474D01*
X102142Y116200D01*
X102858D01*
X103520Y116474D01*
X104026Y116980D01*
X104300Y117642D01*
Y118358D01*
X104026Y119020D01*
X103520Y119526D01*
X103426Y119565D01*
Y122322D01*
X103926Y122529D01*
X103980Y122474D01*
X104642Y122200D01*
X105358D01*
X106020Y122474D01*
X106526Y122980D01*
X106800Y123642D01*
Y123925D01*
X143349Y160475D01*
X143893D01*
X144100Y159975D01*
X107563Y123437D01*
X107275Y123007D01*
X107175Y122500D01*
Y98049D01*
X102926Y93800D01*
X102642D01*
X101980Y93526D01*
X101474Y93020D01*
X101200Y92358D01*
Y91642D01*
X101474Y90980D01*
X101980Y90474D01*
X102642Y90200D01*
X103358D01*
X104020Y90474D01*
X104526Y90980D01*
X104800Y91642D01*
Y91926D01*
X109437Y96563D01*
X109725Y96993D01*
X109826Y97500D01*
Y121951D01*
X145949Y158074D01*
X159822D01*
X160029Y157574D01*
X159974Y157520D01*
X159700Y156858D01*
Y156142D01*
X159974Y155480D01*
X160480Y154974D01*
X161142Y154700D01*
X161425D01*
X178563Y137563D01*
X178993Y137275D01*
X179018Y137270D01*
X179182Y136728D01*
X178974Y136520D01*
X178700Y135858D01*
Y135775D01*
X178200Y135568D01*
X173372Y140396D01*
Y141568D01*
X173286Y141998D01*
X173043Y142361D01*
X173043Y142361D01*
X165911Y149493D01*
X165548Y149736D01*
X165118Y149822D01*
X165118Y149822D01*
X162700D01*
X162700Y149822D01*
X162271Y149736D01*
X161907Y149493D01*
X161907Y149493D01*
X150714Y138300D01*
X150142D01*
X149480Y138026D01*
X148974Y137520D01*
X148700Y136858D01*
Y136142D01*
X148974Y135480D01*
X149480Y134974D01*
X150142Y134700D01*
X150407D01*
X150614Y134200D01*
X149635Y133222D01*
X128924D01*
X128520Y133626D01*
X127858Y133900D01*
X127142D01*
X126480Y133626D01*
X125974Y133120D01*
X125700Y132458D01*
Y131742D01*
X125974Y131080D01*
X126480Y130574D01*
X127142Y130300D01*
X127858D01*
X128520Y130574D01*
X128924Y130978D01*
X150100D01*
X150100Y130978D01*
X150529Y131064D01*
X150893Y131307D01*
X163786Y144200D01*
X164358D01*
X165020Y144474D01*
X165526Y144980D01*
X165800Y145642D01*
Y145725D01*
X166300Y145932D01*
X171128Y141104D01*
Y139932D01*
X171128Y139932D01*
X171214Y139502D01*
X171457Y139139D01*
X178589Y132007D01*
X178589Y132007D01*
X178952Y131764D01*
X179382Y131678D01*
X199362D01*
X199362Y131678D01*
X199791Y131764D01*
X200155Y132007D01*
X205327Y137180D01*
X205899D01*
X206561Y137453D01*
X207067Y137960D01*
X207341Y138621D01*
Y139338D01*
X207067Y139999D01*
X206561Y140505D01*
X205899Y140779D01*
X205183D01*
X204800Y140621D01*
X204312Y140852D01*
X204280Y140906D01*
X204026Y141520D01*
X203520Y142026D01*
X202858Y142300D01*
X202142D01*
X201480Y142026D01*
X200974Y141520D01*
X200700Y140858D01*
Y140286D01*
X199292Y138878D01*
X199185Y138874D01*
X198731Y139024D01*
X198526Y139520D01*
X198020Y140026D01*
X197358Y140300D01*
X196642D01*
X195980Y140026D01*
X195780Y139825D01*
X180049D01*
X163300Y156574D01*
Y156858D01*
X163160Y157197D01*
X163437Y157762D01*
X163603Y157795D01*
X166836Y154563D01*
X167266Y154275D01*
X167773Y154174D01*
X172500D01*
X173007Y154275D01*
X173437Y154563D01*
X175437Y156563D01*
X175725Y156993D01*
X175826Y157500D01*
Y172280D01*
X176026Y172480D01*
X176300Y173142D01*
Y173858D01*
X176026Y174520D01*
X175520Y175026D01*
X174858Y175300D01*
D02*
G37*
G36*
X122161Y170917D02*
X118610D01*
Y167366D01*
X118644D01*
X119674Y167642D01*
X120598Y168176D01*
X121352Y168930D01*
X121885Y169854D01*
X122161Y170884D01*
Y170917D01*
D02*
G37*
G36*
X117610D02*
X114059D01*
Y170884D01*
X114335Y169854D01*
X114868Y168930D01*
X115623Y168176D01*
X116546Y167642D01*
X117577Y167366D01*
X117610D01*
Y170917D01*
D02*
G37*
G36*
X74720Y167437D02*
X70382D01*
Y163098D01*
X74720D01*
Y167437D01*
D02*
G37*
G36*
X69382D02*
X65043D01*
Y163098D01*
X69382D01*
Y167437D01*
D02*
G37*
G36*
X56687Y167037D02*
X55518D01*
X54389Y166735D01*
X53377Y166150D01*
X52551Y165324D01*
X51966Y164312D01*
X51664Y163183D01*
Y162014D01*
X51966Y160885D01*
X52551Y159873D01*
X53377Y159047D01*
X54389Y158462D01*
X55518Y158160D01*
X56687D01*
X57816Y158462D01*
X58828Y159047D01*
X59654Y159873D01*
X60238Y160885D01*
X60541Y162014D01*
Y163183D01*
X60238Y164312D01*
X59654Y165324D01*
X58828Y166150D01*
X57816Y166735D01*
X56687Y167037D01*
D02*
G37*
G36*
X118591Y165069D02*
X117630D01*
X116701Y164820D01*
X115868Y164339D01*
X115189Y163659D01*
X114708Y162827D01*
X114459Y161898D01*
Y160937D01*
X114708Y160008D01*
X115189Y159176D01*
X115868Y158496D01*
X116701Y158015D01*
X117630Y157766D01*
X118591D01*
X119519Y158015D01*
X120352Y158496D01*
X121032Y159176D01*
X121513Y160008D01*
X121761Y160937D01*
Y161898D01*
X121513Y162827D01*
X121032Y163659D01*
X120352Y164339D01*
X119519Y164820D01*
X118591Y165069D01*
D02*
G37*
G36*
X74720Y162098D02*
X70382D01*
Y157760D01*
X74720D01*
Y162098D01*
D02*
G37*
G36*
X69382D02*
X65043D01*
Y157760D01*
X69382D01*
Y162098D01*
D02*
G37*
G36*
X181358Y162800D02*
X180642D01*
X179980Y162526D01*
X179474Y162020D01*
X179200Y161358D01*
Y160642D01*
X179474Y159980D01*
X179878Y159576D01*
Y156465D01*
X178714Y155300D01*
X178142D01*
X177480Y155026D01*
X176974Y154520D01*
X176700Y153858D01*
Y153142D01*
X176974Y152480D01*
X177480Y151974D01*
X178142Y151700D01*
X178858D01*
X179520Y151974D01*
X180026Y152480D01*
X180300Y153142D01*
Y153714D01*
X181793Y155207D01*
X181793Y155207D01*
X182036Y155571D01*
X182122Y156000D01*
Y159576D01*
X182526Y159980D01*
X182800Y160642D01*
Y161358D01*
X182526Y162020D01*
X182020Y162526D01*
X181358Y162800D01*
D02*
G37*
G36*
X121761Y155069D02*
X114459D01*
Y147766D01*
X121761D01*
Y155069D01*
D02*
G37*
G36*
X186858Y162300D02*
X186142D01*
X185480Y162026D01*
X184974Y161520D01*
X184700Y160858D01*
Y160142D01*
X184974Y159480D01*
X185378Y159076D01*
Y150500D01*
X185378Y150500D01*
X185464Y150071D01*
X185707Y149707D01*
X191700Y143714D01*
Y143142D01*
X191974Y142480D01*
X192480Y141974D01*
X193142Y141700D01*
X193858D01*
X194520Y141974D01*
X195026Y142480D01*
X195300Y143142D01*
Y143858D01*
X195026Y144520D01*
X194520Y145026D01*
X193858Y145300D01*
X193286D01*
X187622Y150965D01*
Y159076D01*
X188026Y159480D01*
X188300Y160142D01*
Y160858D01*
X188026Y161520D01*
X187520Y162026D01*
X186858Y162300D01*
D02*
G37*
G36*
X45408Y175100D02*
X44592D01*
X43803Y174889D01*
X43097Y174481D01*
X42519Y173903D01*
X42111Y173197D01*
X41900Y172408D01*
Y171592D01*
X42111Y170803D01*
X42519Y170097D01*
X43097Y169519D01*
X43674Y169186D01*
Y162983D01*
X6937Y126245D01*
X6650Y125815D01*
X6549Y125308D01*
Y115019D01*
X5971Y114685D01*
X5393Y114108D01*
X4985Y113401D01*
X4774Y112613D01*
Y111797D01*
X4985Y111008D01*
X5393Y110301D01*
X5971Y109724D01*
X6678Y109316D01*
X7466Y109105D01*
X8282D01*
X9071Y109316D01*
X9777Y109724D01*
X10355Y110301D01*
X10763Y111008D01*
X10974Y111797D01*
Y112613D01*
X10763Y113401D01*
X10355Y114108D01*
X9777Y114685D01*
X9200Y115019D01*
Y124759D01*
X45937Y161497D01*
X46225Y161927D01*
X46325Y162434D01*
Y169186D01*
X46903Y169519D01*
X47481Y170097D01*
X47889Y170803D01*
X48100Y171592D01*
Y172408D01*
X47889Y173197D01*
X47481Y173903D01*
X46903Y174481D01*
X46197Y174889D01*
X45408Y175100D01*
D02*
G37*
G36*
X62358Y141800D02*
X61642D01*
X60980Y141526D01*
X60474Y141020D01*
X60200Y140358D01*
Y139642D01*
X60474Y138980D01*
X60980Y138474D01*
X61642Y138200D01*
X62358D01*
X63020Y138474D01*
X63220Y138674D01*
X73451D01*
X85200Y126926D01*
Y126642D01*
X85474Y125980D01*
X85675Y125780D01*
Y106220D01*
X85474Y106020D01*
X85200Y105358D01*
Y104642D01*
X85474Y103980D01*
X85980Y103474D01*
X86642Y103200D01*
X87358D01*
X88020Y103474D01*
X88526Y103980D01*
X88800Y104642D01*
Y105358D01*
X88526Y106020D01*
X88326Y106220D01*
Y125780D01*
X88526Y125980D01*
X88800Y126642D01*
Y127358D01*
X88526Y128020D01*
X88020Y128526D01*
X87358Y128800D01*
X87075D01*
X74937Y140937D01*
X74507Y141225D01*
X74000Y141325D01*
X63220D01*
X63020Y141526D01*
X62358Y141800D01*
D02*
G37*
G36*
X173358Y96300D02*
X172642D01*
X171980Y96026D01*
X171474Y95520D01*
X171200Y94858D01*
Y94142D01*
X171474Y93480D01*
X171624Y93331D01*
Y87598D01*
X171510Y87484D01*
X171236Y86822D01*
Y86106D01*
X171510Y85445D01*
X172016Y84939D01*
X172678Y84664D01*
X173394D01*
X174055Y84939D01*
X174562Y85445D01*
X174836Y86106D01*
Y86822D01*
X174562Y87484D01*
X174376Y87669D01*
Y93331D01*
X174526Y93480D01*
X174800Y94142D01*
Y94858D01*
X174526Y95520D01*
X174020Y96026D01*
X173358Y96300D01*
D02*
G37*
G36*
X70358Y122800D02*
X69642D01*
X68980Y122526D01*
X68474Y122020D01*
X68200Y121358D01*
Y120642D01*
X68474Y119980D01*
X68980Y119474D01*
X69642Y119200D01*
X70214D01*
X74178Y115235D01*
Y88200D01*
X74178Y88200D01*
X74264Y87771D01*
X74413Y87547D01*
Y82884D01*
X73913Y82677D01*
X73854Y82736D01*
X73193Y83010D01*
X72477D01*
X71815Y82736D01*
X71622Y82543D01*
X71122Y82750D01*
Y95576D01*
X71526Y95980D01*
X71800Y96642D01*
Y97358D01*
X71526Y98020D01*
X71020Y98526D01*
X70358Y98800D01*
X69642D01*
X68980Y98526D01*
X68474Y98020D01*
X68200Y97358D01*
Y96642D01*
X68474Y95980D01*
X68878Y95576D01*
Y66323D01*
X54778Y52222D01*
X50439D01*
Y47623D01*
X49977Y47431D01*
X48858Y48551D01*
Y51411D01*
X66147Y68700D01*
X66358D01*
X67020Y68974D01*
X67526Y69480D01*
X67800Y70142D01*
Y70858D01*
X67526Y71520D01*
X67020Y72026D01*
X66358Y72300D01*
X65642D01*
X64980Y72026D01*
X64474Y71520D01*
X64200Y70858D01*
Y70647D01*
X46858Y53304D01*
X46358Y53511D01*
Y57911D01*
X53147Y64700D01*
X53358D01*
X54020Y64974D01*
X54526Y65480D01*
X54800Y66142D01*
Y66858D01*
X54526Y67520D01*
X54020Y68026D01*
X53358Y68300D01*
X52642D01*
X51980Y68026D01*
X51474Y67520D01*
X51200Y66858D01*
Y66647D01*
X44008Y59454D01*
X43709Y59008D01*
X43605Y58481D01*
Y46946D01*
X43709Y46419D01*
X44008Y45972D01*
X50058Y39922D01*
X50504Y39624D01*
X51031Y39519D01*
X51427D01*
X51568Y39078D01*
X51570Y39019D01*
X51031Y38480D01*
X50641Y37805D01*
X50439Y37051D01*
Y36271D01*
X50641Y35518D01*
X51031Y34843D01*
X51583Y34291D01*
X52258Y33901D01*
X53012Y33699D01*
X53792D01*
X54545Y33901D01*
X55220Y34291D01*
X55637Y34708D01*
X56137Y34518D01*
Y30144D01*
X55637Y29953D01*
X55220Y30370D01*
X54545Y30760D01*
X53792Y30962D01*
X53012D01*
X52258Y30760D01*
X51583Y30370D01*
X51031Y29819D01*
X50641Y29143D01*
X50439Y28390D01*
Y27610D01*
X50641Y26857D01*
X51031Y26181D01*
X51583Y25630D01*
X52258Y25240D01*
X53012Y25038D01*
X53792D01*
X54545Y25240D01*
X55220Y25630D01*
X55637Y26047D01*
X56137Y25856D01*
Y24021D01*
X54285Y22169D01*
X53792Y22301D01*
X53012D01*
X52258Y22099D01*
X51583Y21709D01*
X51031Y21157D01*
X50641Y20482D01*
X50439Y19729D01*
Y18949D01*
X50641Y18195D01*
X51031Y17520D01*
X51583Y16968D01*
X52258Y16578D01*
X53012Y16376D01*
X53792D01*
X54545Y16578D01*
X55220Y16968D01*
X55772Y17520D01*
X56162Y18195D01*
X56364Y18949D01*
Y19729D01*
X56232Y20222D01*
X58487Y22478D01*
X58487Y22478D01*
X58785Y22924D01*
X58890Y23451D01*
Y38365D01*
X58890Y38365D01*
X58785Y38892D01*
X58487Y39338D01*
X57202Y40624D01*
X57409Y41124D01*
X71831D01*
X71980Y40974D01*
X72642Y40700D01*
X73358D01*
X74020Y40974D01*
X74526Y41480D01*
X74800Y42142D01*
Y42858D01*
X74526Y43520D01*
X74020Y44026D01*
X73358Y44300D01*
X72642D01*
X71980Y44026D01*
X71831Y43876D01*
X69069D01*
X68903Y44339D01*
X68910Y44376D01*
X69252Y44605D01*
X72785Y48138D01*
X84439D01*
Y46298D01*
X90364D01*
Y52222D01*
X84439D01*
Y50381D01*
X72321D01*
X72321Y50381D01*
X71892Y50296D01*
X71528Y50053D01*
X68991Y47516D01*
X68591Y47823D01*
X68760Y48116D01*
X68962Y48870D01*
Y49650D01*
X68760Y50403D01*
X68749Y50423D01*
X72323Y53997D01*
X93677D01*
X97251Y50423D01*
X97240Y50403D01*
X97038Y49650D01*
Y49512D01*
X96538Y49305D01*
X95300Y50543D01*
Y50858D01*
X95026Y51520D01*
X94520Y52026D01*
X93858Y52300D01*
X93142D01*
X92480Y52026D01*
X91974Y51520D01*
X91700Y50858D01*
Y50142D01*
X91974Y49480D01*
X92480Y48974D01*
X93142Y48700D01*
X93250D01*
X94541Y47409D01*
X94616Y47030D01*
X94915Y46583D01*
X97323Y44174D01*
X97770Y43876D01*
X98297Y43771D01*
X105148D01*
X105674Y43876D01*
X106121Y44174D01*
X106570Y44624D01*
X110000D01*
X110527Y44728D01*
X110973Y45027D01*
X111070Y45124D01*
X113930D01*
X115527Y43527D01*
X115973Y43228D01*
X116500Y43123D01*
X116500Y43124D01*
X119930D01*
X121527Y41527D01*
X121973Y41228D01*
X122500Y41124D01*
X122500Y41124D01*
X140500D01*
X141027Y41228D01*
X141473Y41527D01*
X144570Y44624D01*
X148430D01*
X148905Y44148D01*
X149352Y43850D01*
X149879Y43745D01*
X170121D01*
X170648Y43850D01*
X171095Y44148D01*
X173473Y46527D01*
X173772Y46973D01*
X173876Y47500D01*
Y57000D01*
X173877Y57000D01*
X173772Y57527D01*
X173473Y57973D01*
X169973Y61473D01*
X169527Y61772D01*
X169000Y61876D01*
X158884D01*
X158784Y62376D01*
X159020Y62474D01*
X159526Y62980D01*
X159800Y63642D01*
Y64358D01*
X159526Y65020D01*
X159020Y65526D01*
X158358Y65800D01*
X158147D01*
X154823Y69124D01*
X155030Y69624D01*
X155792D01*
X160000Y65416D01*
Y65204D01*
X160274Y64543D01*
X160780Y64036D01*
X161442Y63762D01*
X162158D01*
X162820Y64036D01*
X163326Y64543D01*
X163600Y65204D01*
Y65920D01*
X163326Y66582D01*
X162820Y67088D01*
X162158Y67362D01*
X161947D01*
X157336Y71973D01*
X156889Y72272D01*
X156362Y72376D01*
X116964D01*
X116438Y72272D01*
X115991Y71973D01*
X112527Y68509D01*
X112228Y68062D01*
X112124Y67536D01*
Y57169D01*
X111974Y57020D01*
X111700Y56358D01*
Y55642D01*
X111974Y54980D01*
X112333Y54622D01*
X112126Y54122D01*
X110465D01*
X102738Y61848D01*
X102374Y62091D01*
X101945Y62177D01*
X101945Y62177D01*
X79465D01*
X79122Y62520D01*
Y105576D01*
X79526Y105980D01*
X79800Y106642D01*
Y107358D01*
X79526Y108020D01*
X79020Y108526D01*
X78358Y108800D01*
X77642D01*
X76980Y108526D01*
X76922Y108467D01*
X76422Y108674D01*
Y115700D01*
X76336Y116129D01*
X76093Y116493D01*
X76093Y116493D01*
X71800Y120786D01*
Y121358D01*
X71526Y122020D01*
X71020Y122526D01*
X70358Y122800D01*
D02*
G37*
G36*
X21210Y75836D02*
X12333D01*
Y66959D01*
X21210D01*
Y75836D01*
D02*
G37*
G36*
X17356Y62057D02*
X16187D01*
X15058Y61754D01*
X14046Y61170D01*
X13220Y60344D01*
X12636Y59331D01*
X12333Y58202D01*
Y57034D01*
X12636Y55905D01*
X13220Y54893D01*
X14046Y54066D01*
X15058Y53482D01*
X16187Y53180D01*
X17356D01*
X18485Y53482D01*
X19497Y54066D01*
X20323Y54893D01*
X20908Y55905D01*
X21210Y57034D01*
Y58202D01*
X20908Y59331D01*
X20323Y60344D01*
X19497Y61170D01*
X18485Y61754D01*
X17356Y62057D01*
D02*
G37*
G36*
X261766Y56328D02*
X260597D01*
X259468Y56026D01*
X258456Y55441D01*
X257629Y54615D01*
X257045Y53603D01*
X256743Y52474D01*
Y51305D01*
X257045Y50177D01*
X257629Y49164D01*
X258456Y48338D01*
X259468Y47754D01*
X260597Y47451D01*
X261766D01*
X262894Y47754D01*
X263907Y48338D01*
X264733Y49164D01*
X265317Y50177D01*
X265620Y51305D01*
Y52474D01*
X265317Y53603D01*
X264733Y54615D01*
X263907Y55441D01*
X262894Y56026D01*
X261766Y56328D01*
D02*
G37*
G36*
X21210Y48277D02*
X12333D01*
Y39400D01*
X21210D01*
Y48277D01*
D02*
G37*
G36*
X166390Y39624D02*
X165610D01*
X164857Y39422D01*
X164181Y39032D01*
X163630Y38480D01*
X163240Y37805D01*
X163038Y37051D01*
Y36271D01*
X163240Y35518D01*
X163630Y34843D01*
X164181Y34291D01*
X164857Y33901D01*
X165610Y33699D01*
X166390D01*
X167143Y33901D01*
X167819Y34291D01*
X168370Y34843D01*
X168760Y35518D01*
X168962Y36271D01*
Y37051D01*
X168760Y37805D01*
X168370Y38480D01*
X167819Y39032D01*
X167143Y39422D01*
X166390Y39624D01*
D02*
G37*
G36*
X153792D02*
X153012D01*
X152258Y39422D01*
X151583Y39032D01*
X151031Y38480D01*
X150641Y37805D01*
X150439Y37051D01*
Y36271D01*
X150641Y35518D01*
X151031Y34843D01*
X151583Y34291D01*
X152258Y33901D01*
X153012Y33699D01*
X153792D01*
X154545Y33901D01*
X155220Y34291D01*
X155772Y34843D01*
X156162Y35518D01*
X156364Y36271D01*
Y37051D01*
X156162Y37805D01*
X155772Y38480D01*
X155220Y39032D01*
X154545Y39422D01*
X153792Y39624D01*
D02*
G37*
G36*
X132988D02*
X132208D01*
X131455Y39422D01*
X130780Y39032D01*
X130228Y38480D01*
X129838Y37805D01*
X129636Y37051D01*
Y36271D01*
X129838Y35518D01*
X130228Y34843D01*
X130780Y34291D01*
X131455Y33901D01*
X132208Y33699D01*
X132988D01*
X133742Y33901D01*
X134417Y34291D01*
X134969Y34843D01*
X135359Y35518D01*
X135561Y36271D01*
Y37051D01*
X135359Y37805D01*
X134969Y38480D01*
X134417Y39032D01*
X133742Y39422D01*
X132988Y39624D01*
D02*
G37*
G36*
X120390D02*
X119610D01*
X118857Y39422D01*
X118181Y39032D01*
X117630Y38480D01*
X117240Y37805D01*
X117038Y37051D01*
Y36271D01*
X117240Y35518D01*
X117630Y34843D01*
X118181Y34291D01*
X118857Y33901D01*
X119610Y33699D01*
X120390D01*
X121143Y33901D01*
X121819Y34291D01*
X122370Y34843D01*
X122760Y35518D01*
X122962Y36271D01*
Y37051D01*
X122760Y37805D01*
X122370Y38480D01*
X121819Y39032D01*
X121143Y39422D01*
X120390Y39624D01*
D02*
G37*
G36*
X87792D02*
X87012D01*
X86258Y39422D01*
X85583Y39032D01*
X85031Y38480D01*
X84641Y37805D01*
X84439Y37051D01*
Y36271D01*
X84641Y35518D01*
X85031Y34843D01*
X85583Y34291D01*
X86258Y33901D01*
X87012Y33699D01*
X87792D01*
X88545Y33901D01*
X89220Y34291D01*
X89772Y34843D01*
X90162Y35518D01*
X90364Y36271D01*
Y37051D01*
X90162Y37805D01*
X89772Y38480D01*
X89220Y39032D01*
X88545Y39422D01*
X87792Y39624D01*
D02*
G37*
G36*
X66390D02*
X65610D01*
X64857Y39422D01*
X64181Y39032D01*
X63630Y38480D01*
X63240Y37805D01*
X63038Y37051D01*
Y36271D01*
X63170Y35778D01*
X60914Y33522D01*
X60616Y33076D01*
X60511Y32549D01*
Y23451D01*
X60616Y22924D01*
X60914Y22478D01*
X63170Y20222D01*
X63038Y19729D01*
Y18949D01*
X63240Y18195D01*
X63630Y17520D01*
X64181Y16968D01*
X64857Y16578D01*
X65610Y16376D01*
X66390D01*
X67143Y16578D01*
X67819Y16968D01*
X68370Y17520D01*
X68760Y18195D01*
X68962Y18949D01*
Y19729D01*
X68760Y20482D01*
X68370Y21157D01*
X67819Y21709D01*
X67143Y22099D01*
X66390Y22301D01*
X65610D01*
X65117Y22169D01*
X63264Y24021D01*
Y25856D01*
X63764Y26047D01*
X64181Y25630D01*
X64857Y25240D01*
X65610Y25038D01*
X66390D01*
X67143Y25240D01*
X67819Y25630D01*
X68370Y26181D01*
X68760Y26857D01*
X68962Y27610D01*
Y28390D01*
X68760Y29143D01*
X68370Y29819D01*
X67819Y30370D01*
X67143Y30760D01*
X66390Y30962D01*
X65610D01*
X64857Y30760D01*
X64181Y30370D01*
X63764Y29953D01*
X63264Y30144D01*
Y31979D01*
X65117Y33831D01*
X65610Y33699D01*
X66390D01*
X67143Y33901D01*
X67819Y34291D01*
X68370Y34843D01*
X68760Y35518D01*
X68962Y36271D01*
Y37051D01*
X68760Y37805D01*
X68370Y38480D01*
X67819Y39032D01*
X67143Y39422D01*
X66390Y39624D01*
D02*
G37*
G36*
X265620Y42549D02*
X256743D01*
Y33672D01*
X265620D01*
Y42549D01*
D02*
G37*
G36*
X100390Y39624D02*
X99610D01*
X98857Y39422D01*
X98181Y39032D01*
X97630Y38480D01*
X97240Y37805D01*
X97038Y37051D01*
Y36271D01*
X97240Y35518D01*
X97630Y34843D01*
X98181Y34291D01*
X98705Y33989D01*
X98571Y33489D01*
X98297D01*
X97770Y33384D01*
X97323Y33086D01*
X97323Y33086D01*
X93614Y29376D01*
X90027D01*
X89772Y29819D01*
X89220Y30370D01*
X88545Y30760D01*
X87792Y30962D01*
X87012D01*
X86258Y30760D01*
X85583Y30370D01*
X85031Y29819D01*
X84641Y29143D01*
X84439Y28390D01*
Y27610D01*
X84641Y26857D01*
X85031Y26181D01*
X85583Y25630D01*
X86258Y25240D01*
X87012Y25038D01*
X87792D01*
X88545Y25240D01*
X89220Y25630D01*
X89772Y26181D01*
X90027Y26624D01*
X94184D01*
X94711Y26728D01*
X95158Y27027D01*
X96550Y28419D01*
X97038Y28200D01*
Y27610D01*
X97240Y26857D01*
X97630Y26181D01*
X98181Y25630D01*
X98857Y25240D01*
X99610Y25038D01*
X100390D01*
X101143Y25240D01*
X101819Y25630D01*
X102370Y26181D01*
X102760Y26857D01*
X102962Y27610D01*
Y28390D01*
X102760Y29143D01*
X102370Y29819D01*
X101953Y30236D01*
X102144Y30736D01*
X103782D01*
X105356Y29162D01*
Y4768D01*
X105461Y4241D01*
X105759Y3794D01*
X107527Y2027D01*
X107527Y2027D01*
X107527Y2027D01*
X108259Y1295D01*
X108705Y996D01*
X109232Y891D01*
X154745D01*
X155271Y996D01*
X155718Y1295D01*
X171086Y16662D01*
X171086Y16662D01*
X171384Y17109D01*
X171489Y17635D01*
X171489Y17635D01*
Y21042D01*
X171384Y21569D01*
X171086Y22015D01*
X168677Y24424D01*
X168230Y24723D01*
X167703Y24827D01*
X167429D01*
X167295Y25327D01*
X167819Y25630D01*
X168370Y26181D01*
X168760Y26857D01*
X168962Y27610D01*
Y28390D01*
X168760Y29143D01*
X168370Y29819D01*
X167819Y30370D01*
X167143Y30760D01*
X166390Y30962D01*
X165610D01*
X164857Y30760D01*
X164181Y30370D01*
X163630Y29819D01*
X163240Y29143D01*
X163038Y28390D01*
Y27610D01*
X163240Y26857D01*
X163630Y26181D01*
X164181Y25630D01*
X164705Y25327D01*
X164571Y24827D01*
X163045D01*
X162518Y24723D01*
X162072Y24424D01*
X162072Y24424D01*
X158362Y20715D01*
X156027D01*
X155772Y21157D01*
X155220Y21709D01*
X154545Y22099D01*
X153792Y22301D01*
X153012D01*
X152258Y22099D01*
X151583Y21709D01*
X151031Y21157D01*
X150641Y20482D01*
X150439Y19729D01*
Y18949D01*
X150641Y18195D01*
X151031Y17520D01*
X151583Y16968D01*
X152258Y16578D01*
X153012Y16376D01*
X153792D01*
X154545Y16578D01*
X155220Y16968D01*
X155772Y17520D01*
X156027Y17962D01*
X158933D01*
X159459Y18067D01*
X159906Y18365D01*
X163402Y21862D01*
X163590Y21825D01*
X163756Y21283D01*
X163630Y21157D01*
X163240Y20482D01*
X163038Y19729D01*
Y18949D01*
X163170Y18455D01*
X150859Y6144D01*
X110838D01*
X110609Y6374D01*
Y30768D01*
X110504Y31295D01*
X110205Y31741D01*
X109473Y32473D01*
X109473Y32473D01*
X104312Y37635D01*
X103865Y37933D01*
X103339Y38038D01*
X102626D01*
X102370Y38480D01*
X101819Y39032D01*
X101143Y39422D01*
X100390Y39624D01*
D02*
G37*
G36*
X17356Y34498D02*
X16187D01*
X15058Y34195D01*
X14046Y33611D01*
X13220Y32784D01*
X12636Y31772D01*
X12333Y30643D01*
Y29475D01*
X12636Y28346D01*
X13220Y27334D01*
X14046Y26507D01*
X15058Y25923D01*
X16187Y25620D01*
X17356D01*
X18485Y25923D01*
X19497Y26507D01*
X20323Y27334D01*
X20908Y28346D01*
X21210Y29475D01*
Y30643D01*
X20908Y31772D01*
X20323Y32784D01*
X19497Y33611D01*
X18485Y34195D01*
X17356Y34498D01*
D02*
G37*
G36*
X153792Y30962D02*
X153012D01*
X152258Y30760D01*
X151583Y30370D01*
X151031Y29819D01*
X150641Y29143D01*
X150439Y28390D01*
Y27610D01*
X150641Y26857D01*
X151031Y26181D01*
X151583Y25630D01*
X152258Y25240D01*
X153012Y25038D01*
X153792D01*
X154545Y25240D01*
X155220Y25630D01*
X155772Y26181D01*
X156162Y26857D01*
X156364Y27610D01*
Y28390D01*
X156162Y29143D01*
X155772Y29819D01*
X155220Y30370D01*
X154545Y30760D01*
X153792Y30962D01*
D02*
G37*
G36*
X132988D02*
X132208D01*
X131455Y30760D01*
X130780Y30370D01*
X130228Y29819D01*
X129838Y29143D01*
X129636Y28390D01*
Y27610D01*
X129838Y26857D01*
X130228Y26181D01*
X130780Y25630D01*
X131455Y25240D01*
X132208Y25038D01*
X132988D01*
X133742Y25240D01*
X134417Y25630D01*
X134969Y26181D01*
X135359Y26857D01*
X135561Y27610D01*
Y28390D01*
X135359Y29143D01*
X134969Y29819D01*
X134417Y30370D01*
X133742Y30760D01*
X132988Y30962D01*
D02*
G37*
G36*
X120390D02*
X119610D01*
X118857Y30760D01*
X118181Y30370D01*
X117630Y29819D01*
X117240Y29143D01*
X117038Y28390D01*
Y27610D01*
X117240Y26857D01*
X117630Y26181D01*
X118181Y25630D01*
X118857Y25240D01*
X119610Y25038D01*
X120390D01*
X121143Y25240D01*
X121819Y25630D01*
X122370Y26181D01*
X122760Y26857D01*
X122962Y27610D01*
Y28390D01*
X122760Y29143D01*
X122370Y29819D01*
X121819Y30370D01*
X121143Y30760D01*
X120390Y30962D01*
D02*
G37*
G36*
X232112Y27953D02*
X210442D01*
X209983Y27763D01*
X209792Y27304D01*
Y23583D01*
X209983Y23124D01*
X210442Y22934D01*
X232112D01*
X232572Y23124D01*
X232762Y23583D01*
Y27304D01*
X232572Y27763D01*
X232112Y27953D01*
D02*
G37*
G36*
X132988Y22301D02*
X132208D01*
X131455Y22099D01*
X130780Y21709D01*
X130228Y21157D01*
X129838Y20482D01*
X129636Y19729D01*
Y18949D01*
X129838Y18195D01*
X130228Y17520D01*
X130780Y16968D01*
X131455Y16578D01*
X132208Y16376D01*
X132988D01*
X133742Y16578D01*
X134417Y16968D01*
X134969Y17520D01*
X135359Y18195D01*
X135561Y18949D01*
Y19729D01*
X135359Y20482D01*
X134969Y21157D01*
X134417Y21709D01*
X133742Y22099D01*
X132988Y22301D01*
D02*
G37*
G36*
X120390D02*
X119610D01*
X118857Y22099D01*
X118181Y21709D01*
X117630Y21157D01*
X117240Y20482D01*
X117038Y19729D01*
Y18949D01*
X117240Y18195D01*
X117630Y17520D01*
X118181Y16968D01*
X118857Y16578D01*
X119610Y16376D01*
X120390D01*
X121143Y16578D01*
X121819Y16968D01*
X122370Y17520D01*
X122760Y18195D01*
X122962Y18949D01*
Y19729D01*
X122760Y20482D01*
X122370Y21157D01*
X121819Y21709D01*
X121143Y22099D01*
X120390Y22301D01*
D02*
G37*
G36*
X87792D02*
X87012D01*
X86258Y22099D01*
X85583Y21709D01*
X85031Y21157D01*
X84641Y20482D01*
X84439Y19729D01*
Y18949D01*
X84641Y18195D01*
X85031Y17520D01*
X85583Y16968D01*
X86258Y16578D01*
X87012Y16376D01*
X87792D01*
X88545Y16578D01*
X89220Y16968D01*
X89772Y17520D01*
X90162Y18195D01*
X90364Y18949D01*
Y19729D01*
X90162Y20482D01*
X89772Y21157D01*
X89220Y21709D01*
X88545Y22099D01*
X87792Y22301D01*
D02*
G37*
G36*
X237879Y34649D02*
X223277D01*
X222818Y34459D01*
X222627Y34000D01*
Y30280D01*
X222818Y29820D01*
X223277Y29630D01*
X233602D01*
Y16887D01*
X233792Y16428D01*
X234251Y16238D01*
X237879D01*
X238338Y16428D01*
X238528Y16887D01*
Y31489D01*
Y34000D01*
X238338Y34459D01*
X237879Y34649D01*
D02*
G37*
G36*
X228764Y21257D02*
X206815D01*
X206356Y21066D01*
X206328Y21001D01*
X206262Y20973D01*
X206072Y20514D01*
Y16980D01*
X206262Y16521D01*
X206328Y16493D01*
X206356Y16428D01*
X206815Y16238D01*
X228764D01*
X229223Y16428D01*
X229414Y16887D01*
Y20607D01*
X229223Y21066D01*
X228764Y21257D01*
D02*
G37*
G36*
X219650Y34649D02*
X202350D01*
X202126Y34556D01*
X201792D01*
X201568Y34463D01*
X201420D01*
X201196Y34370D01*
X201141D01*
X200692Y34184D01*
X200676D01*
X200217Y33994D01*
X200209Y33975D01*
X200031Y33901D01*
X200023Y33882D01*
X199845Y33808D01*
X199818Y33742D01*
X199752Y33715D01*
X199744Y33696D01*
X199566Y33622D01*
X199539Y33556D01*
X199473Y33529D01*
X199465Y33510D01*
X199287Y33436D01*
X199260Y33370D01*
X199194Y33343D01*
X199167Y33277D01*
X199101Y33250D01*
X199074Y33184D01*
X199008Y33157D01*
X198981Y33091D01*
X198915Y33064D01*
X198888Y32998D01*
X198822Y32971D01*
X198795Y32905D01*
X198729Y32878D01*
X198702Y32812D01*
X198636Y32785D01*
X198609Y32719D01*
X198543Y32692D01*
X198516Y32626D01*
X198450Y32599D01*
X198423Y32533D01*
X198357Y32506D01*
X198330Y32440D01*
X198264Y32413D01*
X198237Y32347D01*
X198171Y32320D01*
X198097Y32142D01*
X198078Y32134D01*
X198051Y32068D01*
X197985Y32041D01*
X197911Y31863D01*
X197892Y31855D01*
X197818Y31677D01*
X197799Y31669D01*
X197725Y31491D01*
X197706Y31483D01*
X197632Y31305D01*
X197613Y31297D01*
X197539Y31119D01*
X197520Y31111D01*
X197330Y30652D01*
Y30597D01*
X197237Y30373D01*
Y30225D01*
X197144Y30001D01*
Y29760D01*
X197051Y29536D01*
Y27955D01*
X197144Y27730D01*
Y27490D01*
X197237Y27265D01*
Y27211D01*
X197330Y26986D01*
Y26932D01*
X197516Y26482D01*
Y26467D01*
X197706Y26007D01*
X197725Y25999D01*
X197799Y25821D01*
X197865Y25794D01*
X197892Y25728D01*
X197911Y25720D01*
X197985Y25542D01*
X198004Y25534D01*
X198078Y25356D01*
X198144Y25329D01*
X198171Y25263D01*
X198237Y25236D01*
X198264Y25170D01*
X198283Y25162D01*
X198357Y24984D01*
X198423Y24957D01*
X198450Y24891D01*
X198516Y24864D01*
X198543Y24798D01*
X198609Y24771D01*
X198636Y24705D01*
X198702Y24678D01*
X198729Y24612D01*
X198795Y24585D01*
X198822Y24519D01*
X198888Y24492D01*
X198915Y24426D01*
X198981Y24399D01*
X199008Y24333D01*
X199074Y24306D01*
X199101Y24240D01*
X199279Y24167D01*
X199287Y24147D01*
X199353Y24120D01*
X199380Y24054D01*
X199446Y24027D01*
X199473Y23961D01*
X199546Y23931D01*
X199692Y23758D01*
X199752Y23392D01*
X199678Y23213D01*
X199659Y23205D01*
X199585Y23028D01*
X199566Y23020D01*
X199492Y22841D01*
X199473Y22833D01*
X199399Y22655D01*
X199380Y22648D01*
X199306Y22469D01*
X199287Y22461D01*
X199213Y22283D01*
X199194Y22275D01*
X199120Y22097D01*
X199101Y22089D01*
X199027Y21911D01*
X199008Y21903D01*
X198934Y21725D01*
X198915Y21717D01*
X198841Y21539D01*
X198822Y21531D01*
X198748Y21353D01*
X198729Y21345D01*
X198655Y21167D01*
X198636Y21159D01*
X198562Y20981D01*
X198543Y20973D01*
X198469Y20795D01*
X198450Y20787D01*
X198376Y20609D01*
X198357Y20601D01*
X198283Y20423D01*
X198264Y20415D01*
X198190Y20237D01*
X198171Y20229D01*
X198097Y20051D01*
X198078Y20043D01*
X198004Y19865D01*
X197985Y19857D01*
X197911Y19679D01*
X197892Y19671D01*
X197818Y19493D01*
X197799Y19485D01*
X197725Y19307D01*
X197706Y19299D01*
X197632Y19121D01*
X197613Y19113D01*
X197539Y18935D01*
X197520Y18927D01*
X197446Y18749D01*
X197427Y18741D01*
X197353Y18563D01*
X197334Y18555D01*
X197260Y18377D01*
X197241Y18369D01*
X197167Y18191D01*
X197148Y18183D01*
X197074Y18005D01*
X197055Y17997D01*
X196981Y17819D01*
X196962Y17811D01*
X196888Y17633D01*
X196869Y17625D01*
X196795Y17447D01*
X196776Y17439D01*
X196586Y16980D01*
Y16887D01*
X196776Y16428D01*
X197235Y16238D01*
X201420D01*
X201880Y16428D01*
X201953Y16606D01*
X201973Y16614D01*
X202046Y16792D01*
X202066Y16800D01*
X202139Y16978D01*
X202159Y16986D01*
X202232Y17164D01*
X202252Y17172D01*
X202325Y17350D01*
X202345Y17358D01*
X202418Y17536D01*
X202438Y17544D01*
X202511Y17722D01*
X202531Y17730D01*
X202604Y17908D01*
X202624Y17916D01*
X202697Y18094D01*
X202717Y18102D01*
X202790Y18280D01*
X202810Y18288D01*
X202883Y18466D01*
X202903Y18474D01*
X202976Y18652D01*
X202996Y18660D01*
X203069Y18838D01*
X203089Y18846D01*
X203162Y19024D01*
X203182Y19032D01*
X203255Y19210D01*
X203275Y19218D01*
X203348Y19396D01*
X203368Y19404D01*
X203442Y19582D01*
X203461Y19590D01*
X203535Y19768D01*
X203554Y19776D01*
X203627Y19954D01*
X203647Y19962D01*
X203720Y20140D01*
X203740Y20148D01*
X203814Y20326D01*
X203833Y20334D01*
X203906Y20512D01*
X203926Y20520D01*
X203999Y20698D01*
X204019Y20706D01*
X204093Y20884D01*
X204112Y20892D01*
X204186Y21070D01*
X204205Y21078D01*
X204278Y21256D01*
X204298Y21264D01*
X204372Y21442D01*
X204391Y21450D01*
X204465Y21628D01*
X204484Y21636D01*
X204511Y21702D01*
X204577Y21729D01*
X204650Y21907D01*
X204670Y21915D01*
X204744Y22093D01*
X204763Y22101D01*
X204837Y22279D01*
X204856Y22287D01*
X204929Y22465D01*
X204949Y22473D01*
X205023Y22651D01*
X205042Y22659D01*
X205116Y22837D01*
X205135Y22845D01*
X205172Y22934D01*
X206815D01*
X207274Y23124D01*
X207464Y23583D01*
Y27304D01*
X207274Y27763D01*
X206815Y27953D01*
X202707D01*
X202539Y28023D01*
X202531Y28042D01*
X202465Y28069D01*
X202438Y28135D01*
X202372Y28162D01*
X202345Y28228D01*
X202279Y28255D01*
X202252Y28321D01*
X202186Y28348D01*
X202159Y28414D01*
X202139Y28422D01*
X202070Y28590D01*
Y29032D01*
X202120Y29153D01*
X202159Y29169D01*
X202186Y29235D01*
X202252Y29263D01*
X202306Y29394D01*
X202438Y29449D01*
X202465Y29514D01*
X202520Y29537D01*
X202537D01*
X202761Y29630D01*
X219650D01*
X220109Y29820D01*
X220299Y30280D01*
Y34000D01*
X220109Y34459D01*
X219650Y34649D01*
D02*
G37*
G36*
X47858Y40300D02*
X47142D01*
X46480Y40026D01*
X45974Y39520D01*
X45700Y38858D01*
Y38142D01*
X45974Y37480D01*
X46174Y37280D01*
Y6000D01*
X46275Y5493D01*
X46563Y5063D01*
X48063Y3563D01*
X48493Y3275D01*
X49000Y3175D01*
X96680D01*
X97187Y3275D01*
X97617Y3563D01*
X100937Y6883D01*
X101225Y7313D01*
X101326Y7820D01*
Y16683D01*
X101819Y16968D01*
X102370Y17520D01*
X102760Y18195D01*
X102962Y18949D01*
Y19729D01*
X102760Y20482D01*
X102370Y21157D01*
X101819Y21709D01*
X101143Y22099D01*
X100390Y22301D01*
X99610D01*
X98857Y22099D01*
X98181Y21709D01*
X97630Y21157D01*
X97240Y20482D01*
X97038Y19729D01*
Y18949D01*
X97240Y18195D01*
X97630Y17520D01*
X98181Y16968D01*
X98674Y16683D01*
Y8369D01*
X96131Y5825D01*
X49549D01*
X48825Y6549D01*
Y37280D01*
X49026Y37480D01*
X49300Y38142D01*
Y38858D01*
X49026Y39520D01*
X48520Y40026D01*
X47858Y40300D01*
D02*
G37*
%LPD*%
G36*
X156200Y63853D02*
Y63642D01*
X156474Y62980D01*
X156980Y62474D01*
X157216Y62376D01*
X157116Y61876D01*
X143570D01*
X141300Y64147D01*
Y64358D01*
X141026Y65020D01*
X140520Y65526D01*
X139858Y65800D01*
X139142D01*
X138480Y65526D01*
X137974Y65020D01*
X137700Y64358D01*
Y63642D01*
X137974Y62980D01*
X138480Y62474D01*
X139142Y62200D01*
X139353D01*
X142027Y59527D01*
X142473Y59228D01*
X143000Y59123D01*
X143000Y59124D01*
X168430D01*
X171124Y56430D01*
Y48070D01*
X169551Y46498D01*
X168101D01*
X168065Y46547D01*
X167927Y46998D01*
X168370Y47441D01*
X168760Y48116D01*
X168962Y48870D01*
Y49650D01*
X168760Y50403D01*
X168370Y51079D01*
X167819Y51630D01*
X167143Y52020D01*
X166390Y52222D01*
X165610D01*
X164857Y52020D01*
X164837Y52009D01*
X162931Y53915D01*
X162567Y54158D01*
X162138Y54244D01*
X162138Y54244D01*
X139122D01*
X139122Y54244D01*
X138693Y54158D01*
X138638Y54122D01*
X136339D01*
X136339Y54122D01*
X135909Y54036D01*
X135546Y53793D01*
X135546Y53793D01*
X133761Y52009D01*
X133742Y52020D01*
X132988Y52222D01*
X132208D01*
X131455Y52020D01*
X131436Y52009D01*
X129529Y53915D01*
X129165Y54158D01*
X128736Y54244D01*
X128736Y54244D01*
X117016D01*
X117016Y54244D01*
X116587Y54158D01*
X116532Y54122D01*
X114874D01*
X114667Y54622D01*
X115026Y54980D01*
X115243Y55504D01*
X115646Y55651D01*
X115800Y55654D01*
X115980Y55474D01*
X116642Y55200D01*
X117358D01*
X118020Y55474D01*
X118526Y55980D01*
X118800Y56642D01*
Y57358D01*
X118526Y58020D01*
X118376Y58169D01*
Y66930D01*
X118570Y67124D01*
X152930D01*
X156200Y63853D01*
D02*
G37*
G36*
X74413Y64695D02*
Y60465D01*
X74413Y60465D01*
X74498Y60036D01*
X74742Y59672D01*
X76152Y58262D01*
X76152Y58262D01*
X76516Y58019D01*
X76945Y57934D01*
X76945Y57934D01*
X95202D01*
X100430Y52705D01*
X100207Y52222D01*
X99610D01*
X98857Y52020D01*
X98837Y52009D01*
X94935Y55911D01*
X94571Y56154D01*
X94142Y56240D01*
X94142Y56240D01*
X71858D01*
X71858Y56240D01*
X71429Y56154D01*
X71065Y55911D01*
X71065Y55911D01*
X67163Y52009D01*
X67143Y52020D01*
X66390Y52222D01*
X66082D01*
Y56622D01*
X73628Y64168D01*
X73628Y64168D01*
X73871Y64531D01*
X73913Y64744D01*
X74413Y64695D01*
D02*
G37*
G36*
X150439Y50381D02*
X143200D01*
X143200Y50381D01*
X142771Y50296D01*
X142407Y50053D01*
X138873Y46519D01*
X134730D01*
X134547Y47019D01*
X134969Y47441D01*
X135359Y48116D01*
X135561Y48870D01*
Y49650D01*
X135359Y50403D01*
X135347Y50423D01*
X136803Y51878D01*
X139000D01*
X139000Y51878D01*
X139429Y51964D01*
X139484Y52000D01*
X150439D01*
Y50381D01*
D02*
G37*
G36*
X109207Y52207D02*
X109571Y51964D01*
X110000Y51878D01*
X110000Y51878D01*
X116894D01*
X116894Y51878D01*
X117038Y51761D01*
Y50381D01*
X105927D01*
X96874Y59434D01*
X97081Y59934D01*
X101480D01*
X109207Y52207D01*
D02*
G37*
G36*
X129849Y50423D02*
X129838Y50403D01*
X129636Y49650D01*
Y48870D01*
X129838Y48116D01*
X130228Y47441D01*
X130650Y47019D01*
X130466Y46519D01*
X124327D01*
X122962Y47884D01*
Y52000D01*
X128272D01*
X129849Y50423D01*
D02*
G37*
G36*
X63896Y57513D02*
X63918Y57483D01*
X63839Y57087D01*
X63839Y57087D01*
Y51307D01*
X63839Y51307D01*
X63842Y51291D01*
X63630Y51079D01*
X63240Y50403D01*
X63038Y49650D01*
Y48870D01*
X63240Y48116D01*
X63630Y47441D01*
X64052Y47019D01*
X63868Y46519D01*
X57728D01*
X56364Y47884D01*
Y50636D01*
X63404Y57676D01*
X63896Y57513D01*
D02*
G37*
G36*
X163251Y50423D02*
X163240Y50403D01*
X163038Y49650D01*
Y48870D01*
X163240Y48116D01*
X163630Y47441D01*
X164073Y46998D01*
X163935Y46547D01*
X163900Y46498D01*
X156364D01*
Y52000D01*
X161673D01*
X163251Y50423D01*
D02*
G37*
G36*
X232112Y23583D02*
X210442D01*
Y27304D01*
X232112D01*
Y23583D01*
D02*
G37*
G36*
X237879Y31582D02*
Y31489D01*
Y16887D01*
X234251D01*
Y30280D01*
X223277D01*
Y34000D01*
X237879D01*
Y31582D01*
D02*
G37*
G36*
X228764Y16887D02*
X206815D01*
Y16980D01*
X206722D01*
Y20514D01*
X206815D01*
Y20607D01*
X228764D01*
Y16887D01*
D02*
G37*
G36*
X219650Y30280D02*
X202537D01*
Y30187D01*
X202257D01*
Y30094D01*
X202071D01*
Y30001D01*
X201978D01*
Y29908D01*
X201792D01*
Y29722D01*
X201699D01*
Y29629D01*
X201606D01*
Y29536D01*
X201513D01*
Y29257D01*
X201420D01*
Y28327D01*
X201513D01*
Y28141D01*
X201606D01*
Y27955D01*
X201699D01*
Y27862D01*
X201792D01*
Y27769D01*
X201885D01*
Y27676D01*
X201978D01*
Y27583D01*
X202071D01*
Y27490D01*
X202257D01*
Y27397D01*
X202444D01*
Y27304D01*
X206815D01*
Y23583D01*
X204769D01*
Y23490D01*
X204676D01*
Y23304D01*
X204583D01*
Y23118D01*
X204490D01*
Y22932D01*
X204397D01*
Y22746D01*
X204304D01*
Y22560D01*
X204211D01*
Y22374D01*
X204118D01*
Y22188D01*
X204025D01*
Y22095D01*
X203932D01*
Y21909D01*
X203839D01*
Y21723D01*
X203746D01*
Y21537D01*
X203653D01*
Y21351D01*
X203559D01*
Y21165D01*
X203467D01*
Y20979D01*
X203374D01*
Y20793D01*
X203280D01*
Y20607D01*
X203187D01*
Y20421D01*
X203095D01*
Y20235D01*
X203001D01*
Y20049D01*
X202908D01*
Y19863D01*
X202816D01*
Y19677D01*
X202723D01*
Y19491D01*
X202629D01*
Y19305D01*
X202537D01*
Y19119D01*
X202444D01*
Y18933D01*
X202350D01*
Y18747D01*
X202257D01*
Y18561D01*
X202164D01*
Y18375D01*
X202071D01*
Y18189D01*
X201978D01*
Y18003D01*
X201885D01*
Y17817D01*
X201792D01*
Y17631D01*
X201699D01*
Y17445D01*
X201606D01*
Y17259D01*
X201513D01*
Y17073D01*
X201420D01*
Y16887D01*
X197235D01*
Y16980D01*
X197328D01*
Y17166D01*
X197421D01*
Y17352D01*
X197514D01*
Y17538D01*
X197607D01*
Y17724D01*
X197700D01*
Y17910D01*
X197793D01*
Y18096D01*
X197886D01*
Y18282D01*
X197979D01*
Y18468D01*
X198072D01*
Y18654D01*
X198165D01*
Y18840D01*
X198258D01*
Y19026D01*
X198351D01*
Y19212D01*
X198444D01*
Y19398D01*
X198537D01*
Y19584D01*
X198630D01*
Y19770D01*
X198723D01*
Y19956D01*
X198816D01*
Y20142D01*
X198909D01*
Y20328D01*
X199002D01*
Y20514D01*
X199095D01*
Y20700D01*
X199188D01*
Y20886D01*
X199281D01*
Y21072D01*
X199374D01*
Y21258D01*
X199467D01*
Y21444D01*
X199560D01*
Y21630D01*
X199653D01*
Y21816D01*
X199746D01*
Y22002D01*
X199839D01*
Y22188D01*
X199932D01*
Y22374D01*
X200025D01*
Y22560D01*
X200118D01*
Y22746D01*
X200211D01*
Y22932D01*
X200304D01*
Y23118D01*
X200397D01*
Y23304D01*
X200490D01*
Y23490D01*
X200583D01*
Y23676D01*
X200676D01*
Y23862D01*
X200769D01*
Y24048D01*
X200583D01*
Y24141D01*
X200397D01*
Y24234D01*
X200304D01*
Y24327D01*
X200118D01*
Y24420D01*
X199932D01*
Y24513D01*
X199839D01*
Y24606D01*
X199746D01*
Y24699D01*
X199560D01*
Y24792D01*
X199467D01*
Y24885D01*
X199374D01*
Y24978D01*
X199281D01*
Y25071D01*
X199188D01*
Y25164D01*
X199095D01*
Y25257D01*
X199002D01*
Y25350D01*
X198909D01*
Y25444D01*
X198816D01*
Y25629D01*
X198723D01*
Y25723D01*
X198630D01*
Y25815D01*
X198537D01*
Y26002D01*
X198444D01*
Y26188D01*
X198351D01*
Y26281D01*
X198258D01*
Y26467D01*
X198165D01*
Y26746D01*
X198072D01*
Y26932D01*
X197979D01*
Y27211D01*
X197886D01*
Y27490D01*
X197793D01*
Y27955D01*
X197700D01*
Y29536D01*
X197793D01*
Y30001D01*
X197886D01*
Y30373D01*
X197979D01*
Y30652D01*
X198072D01*
Y30838D01*
X198165D01*
Y31024D01*
X198258D01*
Y31210D01*
X198351D01*
Y31396D01*
X198444D01*
Y31582D01*
X198537D01*
Y31675D01*
X198630D01*
Y31861D01*
X198723D01*
Y31954D01*
X198816D01*
Y32047D01*
X198909D01*
Y32140D01*
X199002D01*
Y32233D01*
X199095D01*
Y32326D01*
X199188D01*
Y32419D01*
X199281D01*
Y32512D01*
X199374D01*
Y32605D01*
X199467D01*
Y32698D01*
X199560D01*
Y32791D01*
X199653D01*
Y32884D01*
X199746D01*
Y32977D01*
X199932D01*
Y33070D01*
X200025D01*
Y33163D01*
X200211D01*
Y33256D01*
X200304D01*
Y33349D01*
X200490D01*
Y33442D01*
X200676D01*
Y33535D01*
X200955D01*
Y33628D01*
X201141D01*
Y33721D01*
X201420D01*
Y33814D01*
X201792D01*
Y33907D01*
X202350D01*
Y34000D01*
X219650D01*
Y30280D01*
D02*
G37*
D64*
X118110Y171417D02*
D03*
Y161417D02*
D03*
D65*
Y151417D02*
D03*
D67*
X150500Y136500D02*
X162700Y148700D01*
X165118D02*
X172250Y141568D01*
Y139932D02*
Y141568D01*
X162700Y148700D02*
X165118D01*
X172250Y139932D02*
X179382Y132800D01*
X199362D01*
X205541Y138979D01*
X199700Y137382D02*
Y137700D01*
X202500Y140500D01*
X198118Y135800D02*
X199700Y137382D01*
X197800Y135800D02*
X198118D01*
X197500Y135500D02*
X197800Y135800D01*
X180500Y135500D02*
X197500D01*
X186500Y150500D02*
Y160500D01*
Y150500D02*
X193500Y143500D01*
X181000Y156000D02*
Y161000D01*
X178500Y153500D02*
X181000Y156000D01*
X150100Y132100D02*
X164000Y146000D01*
X127500Y132100D02*
X150100D01*
X139122Y53122D02*
X162138D01*
X166000Y49260D01*
X132598D02*
X136339Y53000D01*
X139000D01*
X139122Y53122D01*
X128736D02*
X132598Y49260D01*
X117016Y53122D02*
X128736D01*
X143200Y49260D02*
X153402D01*
X139338Y45398D02*
X143200Y49260D01*
X123862Y45398D02*
X139338D01*
X110000Y53000D02*
X116894D01*
X101945Y61055D02*
X110000Y53000D01*
X116894D02*
X117016Y53122D01*
X105462Y49260D02*
X120000D01*
X68459Y45398D02*
X72321Y49260D01*
X57264Y45398D02*
X68459D01*
X53402Y49260D02*
X57264Y45398D01*
X70000Y121000D02*
X75300Y115700D01*
Y88200D02*
Y115700D01*
X72835Y64961D02*
Y81210D01*
X75535Y60465D02*
Y87965D01*
X75300Y88200D02*
X75535Y87965D01*
X78000Y62055D02*
Y107000D01*
Y62055D02*
X79000Y61055D01*
X75535Y60465D02*
X76945Y59055D01*
X64961Y57087D02*
X72835Y64961D01*
X79000Y61055D02*
X101945D01*
X53402Y49260D02*
X70000Y65858D01*
Y97000D01*
X76945Y59055D02*
X95667D01*
X64961Y51307D02*
Y57087D01*
X95667Y59055D02*
X105462Y49260D01*
X94142Y55118D02*
X100000Y49260D01*
X71858Y55118D02*
X94142D01*
X66000Y49260D02*
X71858Y55118D01*
X72321Y49260D02*
X87402D01*
X120000D02*
X123862Y45398D01*
X64961Y51307D02*
X66000Y50268D01*
Y49260D02*
Y50268D01*
D68*
X117000Y67500D02*
X118000Y68500D01*
X113500Y56000D02*
Y67536D01*
X156362Y71000D02*
X161800Y65562D01*
X113500Y67536D02*
X116964Y71000D01*
X117000Y57000D02*
Y67500D01*
X118000Y68500D02*
X153500D01*
X116964Y71000D02*
X156362D01*
X153500Y68500D02*
X158000Y64000D01*
X109232Y2268D02*
X154745D01*
X170112Y17635D01*
X170121Y45121D02*
X172500Y47500D01*
Y57000D01*
X169000Y60500D02*
X172500Y57000D01*
X143000Y60500D02*
X169000D01*
X139500Y64000D02*
X143000Y60500D01*
X44981Y58481D02*
X53000Y66500D01*
X173000Y86500D02*
X173036Y86465D01*
X173000Y86500D02*
Y94500D01*
X140500Y42500D02*
X144000Y46000D01*
X149879Y45121D02*
X170121D01*
X144000Y46000D02*
X149000D01*
X149879Y45121D01*
X110500Y46500D02*
X114500D01*
X110000Y46000D02*
X110500Y46500D01*
X170112Y17635D02*
Y21042D01*
X167703Y23451D02*
X170112Y21042D01*
X163045Y23451D02*
X167703D01*
X153402Y19339D02*
X158933D01*
X163045Y23451D01*
X108500Y3000D02*
X109232Y2268D01*
X108500Y3000D02*
X108500D01*
X151429Y4768D02*
X166000Y19339D01*
X110268Y4768D02*
X151429D01*
X109232Y5803D02*
X110268Y4768D01*
X109232Y5803D02*
Y30768D01*
X108500Y31500D02*
X109232Y30768D01*
X108500Y31500D02*
Y31500D01*
X106732Y4768D02*
X108500Y3000D01*
X106732Y4768D02*
Y29732D01*
X104232Y32232D02*
X106732Y29732D01*
X98297Y32112D02*
X104112D01*
X94184Y28000D02*
X98297Y32112D01*
X87402Y28000D02*
X94184D01*
X104112Y32112D02*
X104232Y32232D01*
X103339Y36661D02*
X108500Y31500D01*
X100000Y36661D02*
X103339D01*
X44981Y46946D02*
Y58481D01*
Y46946D02*
X51031Y40895D01*
X54983D02*
X57514Y38365D01*
Y23451D02*
Y38365D01*
X51031Y40895D02*
X54983D01*
X53402Y19339D02*
X57514Y23451D01*
X56084Y43395D02*
X56979Y42500D01*
X47481Y47981D02*
X52067Y43395D01*
X56979Y42500D02*
X73000D01*
X52067Y43395D02*
X56084D01*
X47481Y51981D02*
X66000Y70500D01*
X47481Y47981D02*
Y51981D01*
X105148Y45148D02*
X106000Y46000D01*
X116500Y44500D02*
X120500D01*
X122500Y42500D01*
X114500Y46500D02*
X116500Y44500D01*
X106000Y46000D02*
X110000D01*
X122500Y42500D02*
X140500D01*
X98297Y45148D02*
X105148D01*
X95888Y47556D02*
X98297Y45148D01*
X95888Y47556D02*
Y48009D01*
X93500Y50397D02*
X95888Y48009D01*
X93500Y50397D02*
Y50500D01*
X61888Y23451D02*
Y32549D01*
Y23451D02*
X66000Y19339D01*
X61888Y32549D02*
X66000Y36661D01*
D69*
X108500Y122500D02*
X145400Y159400D01*
X108500Y97500D02*
Y122500D01*
X145400Y159400D02*
X163873D01*
X102100Y125201D02*
X150399Y173500D01*
X166500D01*
X105000Y124000D02*
X142800Y161800D01*
X102100Y118671D02*
Y125201D01*
X142800Y161800D02*
X164867D01*
X103000Y92000D02*
X108500Y97500D01*
X102100Y118671D02*
X102500Y118271D01*
Y118000D02*
Y118271D01*
X163873Y159400D02*
X167773Y155500D01*
X172500D01*
X164867Y161800D02*
X165167Y161500D01*
X171000D01*
X161500Y156500D02*
X179500Y138500D01*
X197000D01*
X174500Y157500D02*
Y173500D01*
X172500Y155500D02*
X174500Y157500D01*
X100000Y7820D02*
Y19339D01*
X96680Y4500D02*
X100000Y7820D01*
X49000Y4500D02*
X96680D01*
X47500Y6000D02*
X49000Y4500D01*
X47500Y6000D02*
Y38500D01*
X7874Y125308D02*
X45000Y162434D01*
X7874Y112205D02*
Y125308D01*
X45000Y162434D02*
Y172000D01*
X62000Y140000D02*
X74000D01*
X87000Y127000D01*
Y105000D02*
Y127000D01*
D72*
X166000Y28000D02*
D03*
X153402D02*
D03*
Y36661D02*
D03*
X166000D02*
D03*
X153402Y19339D02*
D03*
X166000D02*
D03*
Y49260D02*
D03*
X120000Y19339D02*
D03*
X132598D02*
D03*
X53402Y28000D02*
D03*
X66000D02*
D03*
X87402D02*
D03*
X100000Y36661D02*
D03*
X120000D02*
D03*
X132598D02*
D03*
X66000Y49260D02*
D03*
Y36661D02*
D03*
Y19339D02*
D03*
X53402D02*
D03*
Y36661D02*
D03*
X132598Y49260D02*
D03*
Y28000D02*
D03*
X120000D02*
D03*
X100000Y49260D02*
D03*
Y28000D02*
D03*
Y19339D02*
D03*
X87402D02*
D03*
Y36661D02*
D03*
D73*
X153402Y49260D02*
D03*
X53402D02*
D03*
X120000D02*
D03*
X87402D02*
D03*
D74*
X16772Y43839D02*
D03*
Y71398D02*
D03*
X261181Y38110D02*
D03*
D75*
X16772Y57618D02*
D03*
X56102Y162598D02*
D03*
X16772Y30059D02*
D03*
X261181Y51890D02*
D03*
D76*
X69882Y162598D02*
D03*
D77*
X216333Y82000D02*
D03*
X206333D02*
D03*
X209667D02*
D03*
X219667D02*
D03*
X223000D02*
D03*
X213000D02*
D03*
X203000D02*
D03*
X226333D02*
D03*
X229667D02*
D03*
X233000D02*
D03*
X236333D02*
D03*
X241333Y91000D02*
D03*
X251333Y89000D02*
D03*
X127000Y117000D02*
D03*
X273000Y82000D02*
D03*
X269667D02*
D03*
X266333D02*
D03*
X263000D02*
D03*
X259667D02*
D03*
X256333D02*
D03*
X246333D02*
D03*
X253000D02*
D03*
X249667D02*
D03*
X243000D02*
D03*
X239667D02*
D03*
X232000Y73000D02*
D03*
X228700D02*
D03*
X225400D02*
D03*
X222100D02*
D03*
X218800D02*
D03*
X215500D02*
D03*
X212200D02*
D03*
X208900D02*
D03*
X205600D02*
D03*
X202300D02*
D03*
X199000D02*
D03*
X2000Y128000D02*
D03*
Y124000D02*
D03*
X5000D02*
D03*
X11600D02*
D03*
X14800D02*
D03*
X18000D02*
D03*
X21000D02*
D03*
X28000D02*
D03*
X31000D02*
D03*
X34000D02*
D03*
X38000Y122000D02*
D03*
X41333D02*
D03*
X44667D02*
D03*
X48000D02*
D03*
X51333D02*
D03*
X54667D02*
D03*
X58000D02*
D03*
X61000Y120000D02*
D03*
Y117000D02*
D03*
Y113250D02*
D03*
Y109500D02*
D03*
Y105750D02*
D03*
Y98250D02*
D03*
Y102000D02*
D03*
Y94500D02*
D03*
Y90750D02*
D03*
Y87000D02*
D03*
Y83250D02*
D03*
Y79500D02*
D03*
Y75750D02*
D03*
Y72000D02*
D03*
X65000Y75000D02*
D03*
X67000Y78000D02*
D03*
X118000Y105000D02*
D03*
Y102125D02*
D03*
Y99250D02*
D03*
Y96375D02*
D03*
Y93500D02*
D03*
Y90625D02*
D03*
Y87750D02*
D03*
Y84875D02*
D03*
Y82000D02*
D03*
X116000Y80000D02*
D03*
X112111D02*
D03*
X108222D02*
D03*
X104333D02*
D03*
X100444D02*
D03*
X96556D02*
D03*
X88778D02*
D03*
X92667D02*
D03*
X84889D02*
D03*
X81000D02*
D03*
X167000Y117000D02*
D03*
X162000D02*
D03*
X157000D02*
D03*
X152000D02*
D03*
X147000D02*
D03*
X142000D02*
D03*
X137000D02*
D03*
X132000D02*
D03*
X122000D02*
D03*
X199000Y82000D02*
D03*
Y85000D02*
D03*
Y88000D02*
D03*
Y91000D02*
D03*
Y94000D02*
D03*
Y97000D02*
D03*
Y100000D02*
D03*
Y103000D02*
D03*
Y106000D02*
D03*
Y109000D02*
D03*
Y112000D02*
D03*
X87000Y105000D02*
D03*
X150500Y136500D02*
D03*
X205541Y138979D02*
D03*
X180500Y135500D02*
D03*
X202500Y140500D02*
D03*
X193500Y143500D02*
D03*
X186500Y160500D02*
D03*
X181000Y161000D02*
D03*
X178500Y153500D02*
D03*
X164000Y146000D02*
D03*
X127500Y132100D02*
D03*
X103000Y92000D02*
D03*
X102500Y118000D02*
D03*
X161500Y156500D02*
D03*
X174500Y173500D02*
D03*
X105000Y124000D02*
D03*
X166500Y173500D02*
D03*
X171000Y161500D02*
D03*
X197000Y138500D02*
D03*
X53000Y66500D02*
D03*
X173036Y86465D02*
D03*
X173000Y94500D02*
D03*
X158000Y64000D02*
D03*
X161800Y65562D02*
D03*
X117000Y57000D02*
D03*
X113500Y56000D02*
D03*
X66000Y70500D02*
D03*
X72835Y81210D02*
D03*
X139500Y64000D02*
D03*
X93500Y50500D02*
D03*
X73000Y42500D02*
D03*
X47500Y38500D02*
D03*
X62000Y140000D02*
D03*
X87000Y127000D02*
D03*
X78000Y107000D02*
D03*
X70000Y97000D02*
D03*
Y121000D02*
D03*
D78*
X11811Y11811D02*
D03*
Y165354D02*
D03*
X263779D02*
D03*
Y11811D02*
D03*
D79*
X7874Y112205D02*
D03*
X45000Y172000D02*
D03*
M02*
