G04*
G04 #@! TF.GenerationSoftware,Altium Limited,Altium Designer,22.2.1 (43)*
G04*
G04 Layer_Color=255*
%FSLAX25Y25*%
%MOIN*%
G70*
G04*
G04 #@! TF.SameCoordinates,4D9873E2-C187-445E-AA94-CFDCCC1DA697*
G04*
G04*
G04 #@! TF.FilePolarity,Positive*
G04*
G01*
G75*
%ADD64C,0.06102*%
%ADD65R,0.06102X0.06102*%
%ADD72C,0.04724*%
%ADD73R,0.04724X0.04724*%
%ADD74R,0.07677X0.07677*%
%ADD75C,0.07677*%
%ADD76R,0.07677X0.07677*%
D64*
X118110Y171417D02*
D03*
Y161417D02*
D03*
D65*
Y151417D02*
D03*
D72*
X166000Y28000D02*
D03*
X153402D02*
D03*
Y36661D02*
D03*
X166000D02*
D03*
X153402Y19339D02*
D03*
X166000D02*
D03*
Y49260D02*
D03*
X120000Y19339D02*
D03*
X132598D02*
D03*
X53402Y28000D02*
D03*
X66000D02*
D03*
X87402D02*
D03*
X100000Y36661D02*
D03*
X120000D02*
D03*
X132598D02*
D03*
X66000Y49260D02*
D03*
Y36661D02*
D03*
Y19339D02*
D03*
X53402D02*
D03*
Y36661D02*
D03*
X132598Y49260D02*
D03*
Y28000D02*
D03*
X120000D02*
D03*
X100000Y49260D02*
D03*
Y28000D02*
D03*
Y19339D02*
D03*
X87402D02*
D03*
Y36661D02*
D03*
D73*
X153402Y49260D02*
D03*
X53402D02*
D03*
X120000D02*
D03*
X87402D02*
D03*
D74*
X16772Y43839D02*
D03*
Y71398D02*
D03*
X261181Y38110D02*
D03*
D75*
X16772Y57618D02*
D03*
X56102Y162598D02*
D03*
X16772Y30059D02*
D03*
X261181Y51890D02*
D03*
D76*
X69882Y162598D02*
D03*
M02*
