G04*
G04 #@! TF.GenerationSoftware,Altium Limited,Altium Designer,22.2.1 (43)*
G04*
G04 Layer_Color=16711935*
%FSLAX25Y25*%
%MOIN*%
G70*
G04*
G04 #@! TF.SameCoordinates,4D9873E2-C187-445E-AA94-CFDCCC1DA697*
G04*
G04*
G04 #@! TF.FilePolarity,Positive*
G04*
G01*
G75*
%ADD15C,0.00787*%
G36*
X118808Y168897D02*
X116289D01*
Y169232D01*
X118808D01*
Y168897D01*
D02*
G37*
G36*
X117075Y168413D02*
X117101Y168410D01*
X117133Y168406D01*
X117170Y168399D01*
X117210Y168392D01*
X117293Y168366D01*
X117337Y168351D01*
X117384Y168330D01*
X117432Y168304D01*
X117475Y168279D01*
X117519Y168246D01*
X117563Y168210D01*
X117566Y168206D01*
X117574Y168199D01*
X117585Y168188D01*
X117596Y168169D01*
X117614Y168148D01*
X117632Y168119D01*
X117654Y168082D01*
X117672Y168042D01*
X117694Y167995D01*
X117716Y167940D01*
X117734Y167882D01*
X117748Y167813D01*
X117763Y167740D01*
X117774Y167660D01*
X117781Y167569D01*
X117785Y167474D01*
Y166830D01*
X118808D01*
Y166495D01*
X116289D01*
Y167529D01*
X116292Y167584D01*
X116296Y167645D01*
X116300Y167711D01*
X116307Y167773D01*
X116314Y167827D01*
Y167835D01*
X116322Y167860D01*
X116329Y167893D01*
X116340Y167937D01*
X116358Y167984D01*
X116380Y168035D01*
X116405Y168089D01*
X116434Y168137D01*
X116438Y168144D01*
X116449Y168159D01*
X116471Y168180D01*
X116496Y168210D01*
X116529Y168242D01*
X116573Y168275D01*
X116620Y168312D01*
X116675Y168341D01*
X116682Y168344D01*
X116700Y168351D01*
X116733Y168366D01*
X116777Y168381D01*
X116827Y168392D01*
X116886Y168406D01*
X116951Y168413D01*
X117020Y168417D01*
X117024D01*
X117035D01*
X117050D01*
X117075Y168413D01*
D02*
G37*
G36*
X117610Y166033D02*
X117639D01*
X117708Y166029D01*
X117789Y166018D01*
X117872Y166007D01*
X117960Y165989D01*
X118047Y165967D01*
X118051D01*
X118058Y165964D01*
X118069Y165960D01*
X118083Y165956D01*
X118123Y165942D01*
X118174Y165920D01*
X118233Y165898D01*
X118291Y165869D01*
X118353Y165833D01*
X118411Y165796D01*
X118418Y165793D01*
X118436Y165778D01*
X118462Y165756D01*
X118495Y165727D01*
X118531Y165694D01*
X118567Y165654D01*
X118607Y165614D01*
X118640Y165567D01*
X118644Y165560D01*
X118655Y165545D01*
X118669Y165520D01*
X118688Y165483D01*
X118709Y165439D01*
X118728Y165389D01*
X118749Y165330D01*
X118768Y165265D01*
Y165258D01*
X118771Y165247D01*
X118775Y165236D01*
X118779Y165199D01*
X118786Y165148D01*
X118793Y165090D01*
X118800Y165021D01*
X118804Y164945D01*
X118808Y164861D01*
Y163954D01*
X116289D01*
Y164923D01*
X116292Y164988D01*
X116296Y165061D01*
X116303Y165134D01*
X116314Y165207D01*
X116325Y165268D01*
Y165272D01*
X116329Y165279D01*
Y165290D01*
X116336Y165305D01*
X116347Y165345D01*
X116365Y165396D01*
X116391Y165454D01*
X116423Y165516D01*
X116460Y165578D01*
X116507Y165636D01*
X116511Y165640D01*
X116515Y165643D01*
X116525Y165654D01*
X116536Y165669D01*
X116573Y165705D01*
X116624Y165749D01*
X116686Y165796D01*
X116758Y165847D01*
X116842Y165894D01*
X116937Y165935D01*
X116940D01*
X116948Y165938D01*
X116962Y165945D01*
X116984Y165949D01*
X117009Y165960D01*
X117039Y165967D01*
X117071Y165975D01*
X117111Y165986D01*
X117151Y165996D01*
X117199Y166004D01*
X117301Y166022D01*
X117414Y166033D01*
X117537Y166036D01*
X117541D01*
X117548D01*
X117566D01*
X117585D01*
X117610Y166033D01*
D02*
G37*
G36*
X117839Y163394D02*
X117876D01*
X117920Y163390D01*
X117963Y163387D01*
X118061Y163376D01*
X118163Y163361D01*
X118262Y163339D01*
X118309Y163325D01*
X118353Y163310D01*
X118356D01*
X118364Y163306D01*
X118375Y163299D01*
X118389Y163292D01*
X118429Y163270D01*
X118480Y163237D01*
X118538Y163194D01*
X118597Y163143D01*
X118658Y163077D01*
X118713Y162997D01*
Y162993D01*
X118720Y162986D01*
X118724Y162975D01*
X118735Y162957D01*
X118746Y162935D01*
X118757Y162906D01*
X118768Y162877D01*
X118782Y162841D01*
X118797Y162801D01*
X118808Y162757D01*
X118819Y162709D01*
X118830Y162655D01*
X118837Y162600D01*
X118844Y162542D01*
X118851Y162411D01*
Y162378D01*
X118848Y162353D01*
Y162324D01*
X118844Y162287D01*
X118840Y162247D01*
X118837Y162207D01*
X118822Y162116D01*
X118800Y162018D01*
X118771Y161923D01*
X118731Y161832D01*
Y161829D01*
X118724Y161821D01*
X118717Y161810D01*
X118709Y161796D01*
X118680Y161756D01*
X118640Y161708D01*
X118589Y161654D01*
X118531Y161603D01*
X118458Y161552D01*
X118378Y161512D01*
X118375D01*
X118367Y161508D01*
X118353Y161505D01*
X118334Y161497D01*
X118313Y161490D01*
X118283Y161483D01*
X118251Y161472D01*
X118211Y161465D01*
X118167Y161457D01*
X118120Y161446D01*
X118069Y161439D01*
X118014Y161432D01*
X117952Y161425D01*
X117887Y161421D01*
X117818Y161417D01*
X117745D01*
X116289D01*
Y161752D01*
X117745D01*
X117748D01*
X117759D01*
X117778D01*
X117799D01*
X117825Y161756D01*
X117858D01*
X117927Y161759D01*
X118007Y161767D01*
X118087Y161778D01*
X118163Y161792D01*
X118196Y161800D01*
X118229Y161810D01*
X118236Y161814D01*
X118254Y161821D01*
X118280Y161840D01*
X118316Y161861D01*
X118353Y161887D01*
X118393Y161923D01*
X118433Y161967D01*
X118465Y162018D01*
X118469Y162025D01*
X118480Y162043D01*
X118491Y162076D01*
X118506Y162120D01*
X118524Y162171D01*
X118535Y162236D01*
X118546Y162305D01*
X118549Y162382D01*
Y162418D01*
X118546Y162440D01*
Y162473D01*
X118542Y162506D01*
X118527Y162586D01*
X118509Y162673D01*
X118480Y162757D01*
X118440Y162837D01*
X118415Y162873D01*
X118385Y162906D01*
X118382Y162910D01*
X118378Y162913D01*
X118367Y162921D01*
X118353Y162932D01*
X118331Y162943D01*
X118309Y162957D01*
X118276Y162972D01*
X118244Y162986D01*
X118203Y163001D01*
X118156Y163012D01*
X118102Y163026D01*
X118043Y163037D01*
X117978Y163048D01*
X117909Y163055D01*
X117829Y163063D01*
X117745D01*
X116289D01*
Y163398D01*
X117745D01*
X117748D01*
X117763D01*
X117781D01*
X117807D01*
X117839Y163394D01*
D02*
G37*
%LPC*%
G36*
X117031Y168075D02*
X117028D01*
X117024D01*
X117006D01*
X116973Y168071D01*
X116937Y168064D01*
X116897Y168057D01*
X116849Y168042D01*
X116806Y168020D01*
X116762Y167995D01*
X116758Y167991D01*
X116744Y167980D01*
X116726Y167962D01*
X116700Y167940D01*
X116675Y167907D01*
X116653Y167871D01*
X116631Y167831D01*
X116613Y167784D01*
Y167780D01*
X116609Y167765D01*
X116605Y167744D01*
X116598Y167715D01*
X116595Y167671D01*
X116591Y167616D01*
X116587Y167551D01*
Y166830D01*
X117486D01*
Y167507D01*
X117483Y167533D01*
Y167558D01*
X117479Y167587D01*
X117472Y167656D01*
X117457Y167733D01*
X117435Y167809D01*
X117406Y167878D01*
X117388Y167911D01*
X117366Y167937D01*
X117359Y167944D01*
X117344Y167958D01*
X117315Y167980D01*
X117279Y168006D01*
X117232Y168031D01*
X117173Y168053D01*
X117108Y168068D01*
X117031Y168075D01*
D02*
G37*
G36*
X117530Y165694D02*
X117526D01*
X117512D01*
X117494D01*
X117464Y165691D01*
X117432D01*
X117395Y165687D01*
X117352Y165683D01*
X117308Y165680D01*
X117210Y165662D01*
X117108Y165640D01*
X117013Y165607D01*
X116966Y165585D01*
X116926Y165563D01*
X116922D01*
X116915Y165556D01*
X116904Y165549D01*
X116889Y165541D01*
X116853Y165512D01*
X116809Y165476D01*
X116762Y165429D01*
X116715Y165374D01*
X116675Y165312D01*
X116642Y165247D01*
X116638Y165239D01*
X116635Y165221D01*
X116624Y165188D01*
X116613Y165141D01*
X116605Y165083D01*
X116595Y165010D01*
X116591Y164966D01*
Y164919D01*
X116587Y164872D01*
Y164289D01*
X118509D01*
Y164886D01*
X118506Y164912D01*
X118502Y164966D01*
X118498Y165028D01*
X118491Y165094D01*
X118480Y165159D01*
X118465Y165214D01*
X118462Y165221D01*
X118458Y165239D01*
X118447Y165265D01*
X118433Y165298D01*
X118411Y165334D01*
X118389Y165370D01*
X118364Y165407D01*
X118334Y165443D01*
X118327Y165447D01*
X118313Y165461D01*
X118287Y165483D01*
X118251Y165509D01*
X118203Y165538D01*
X118149Y165571D01*
X118087Y165600D01*
X118018Y165625D01*
X118014D01*
X118007Y165629D01*
X117996Y165632D01*
X117981Y165636D01*
X117963Y165640D01*
X117938Y165647D01*
X117912Y165654D01*
X117883Y165662D01*
X117810Y165673D01*
X117727Y165683D01*
X117632Y165691D01*
X117530Y165694D01*
D02*
G37*
%LPD*%
D15*
X112717Y146024D02*
X123504D01*
Y176811D01*
X112717D02*
X123504D01*
X112717Y146024D02*
Y176811D01*
M02*
