G04*
G04 #@! TF.GenerationSoftware,Altium Limited,Altium Designer,22.2.1 (43)*
G04*
G04 Layer_Color=255*
%FSLAX25Y25*%
%MOIN*%
G70*
G04*
G04 #@! TF.SameCoordinates,4D9873E2-C187-445E-AA94-CFDCCC1DA697*
G04*
G04*
G04 #@! TF.FilePolarity,Positive*
G04*
G01*
G75*
%ADD17R,0.02441X0.01654*%
%ADD18R,0.05315X0.04331*%
%ADD19R,0.01968X0.01870*%
%ADD20R,0.01654X0.02441*%
%ADD21R,0.02362X0.02953*%
%ADD22R,0.07480X0.12598*%
%ADD23R,0.07480X0.03740*%
%ADD24R,0.02756X0.02756*%
G04:AMPARAMS|DCode=25|XSize=25.59mil|YSize=64.96mil|CornerRadius=1.92mil|HoleSize=0mil|Usage=FLASHONLY|Rotation=270.000|XOffset=0mil|YOffset=0mil|HoleType=Round|Shape=RoundedRectangle|*
%AMROUNDEDRECTD25*
21,1,0.02559,0.06112,0,0,270.0*
21,1,0.02175,0.06496,0,0,270.0*
1,1,0.00384,-0.03056,-0.01088*
1,1,0.00384,-0.03056,0.01088*
1,1,0.00384,0.03056,0.01088*
1,1,0.00384,0.03056,-0.01088*
%
%ADD25ROUNDEDRECTD25*%
%ADD26R,0.01870X0.01968*%
G04:AMPARAMS|DCode=27|XSize=23.62mil|YSize=57.09mil|CornerRadius=2.01mil|HoleSize=0mil|Usage=FLASHONLY|Rotation=180.000|XOffset=0mil|YOffset=0mil|HoleType=Round|Shape=RoundedRectangle|*
%AMROUNDEDRECTD27*
21,1,0.02362,0.05307,0,0,180.0*
21,1,0.01961,0.05709,0,0,180.0*
1,1,0.00402,-0.00980,0.02653*
1,1,0.00402,0.00980,0.02653*
1,1,0.00402,0.00980,-0.02653*
1,1,0.00402,-0.00980,-0.02653*
%
%ADD27ROUNDEDRECTD27*%
%ADD28R,0.02362X0.02756*%
%ADD29R,0.04449X0.09606*%
%ADD30R,0.07874X0.02559*%
%ADD31R,0.09409X0.12598*%
%ADD32R,0.02559X0.06496*%
%ADD33R,0.04331X0.04921*%
%ADD34R,0.05512X0.03543*%
%ADD35R,0.07874X0.06299*%
%ADD36R,0.06299X0.02559*%
%ADD37R,0.02756X0.02362*%
%ADD64C,0.06102*%
%ADD65R,0.06102X0.06102*%
%ADD72C,0.04724*%
%ADD73R,0.04724X0.04724*%
%ADD74R,0.07677X0.07677*%
%ADD75C,0.07677*%
%ADD76R,0.07677X0.07677*%
D17*
X41000Y44000D02*
D03*
Y39669D02*
D03*
X135000Y139331D02*
D03*
Y135000D02*
D03*
X130000Y139331D02*
D03*
Y135000D02*
D03*
X159000Y88500D02*
D03*
Y92831D02*
D03*
X65000Y97000D02*
D03*
Y101331D02*
D03*
X69000Y114399D02*
D03*
Y110068D02*
D03*
X125000Y139331D02*
D03*
Y135000D02*
D03*
X52000Y98165D02*
D03*
Y93835D02*
D03*
X46567Y98165D02*
D03*
Y93835D02*
D03*
X7567Y99165D02*
D03*
Y94835D02*
D03*
D18*
X55118Y140354D02*
D03*
Y127362D02*
D03*
D19*
X199500Y59035D02*
D03*
Y55000D02*
D03*
X167500Y62500D02*
D03*
Y66535D02*
D03*
X159500Y74000D02*
D03*
Y69964D02*
D03*
X205000Y53500D02*
D03*
Y57535D02*
D03*
X194500Y53465D02*
D03*
Y57500D02*
D03*
X208000Y143969D02*
D03*
Y148000D02*
D03*
X204000Y143965D02*
D03*
Y148000D02*
D03*
X196000Y143982D02*
D03*
Y148018D02*
D03*
X94488Y149656D02*
D03*
Y145620D02*
D03*
X108268Y145575D02*
D03*
Y149606D02*
D03*
X200000Y143965D02*
D03*
Y148000D02*
D03*
X215500Y60000D02*
D03*
Y64035D02*
D03*
X197000Y130000D02*
D03*
Y134032D02*
D03*
D20*
X95165Y11000D02*
D03*
X90835D02*
D03*
X62669Y126000D02*
D03*
X67000D02*
D03*
X29000Y88000D02*
D03*
X24669D02*
D03*
X166665Y70000D02*
D03*
X162335D02*
D03*
X33000Y120000D02*
D03*
X28669D02*
D03*
X218165Y113000D02*
D03*
X213835D02*
D03*
D21*
X45000Y160000D02*
D03*
Y164331D02*
D03*
D22*
X15551Y137795D02*
D03*
D23*
X39567Y146850D02*
D03*
Y137795D02*
D03*
Y128740D02*
D03*
D24*
X27244Y163000D02*
D03*
X32756D02*
D03*
D25*
X16272Y109569D02*
D03*
Y104569D02*
D03*
Y99569D02*
D03*
Y94569D02*
D03*
X38516Y109569D02*
D03*
Y104569D02*
D03*
Y99569D02*
D03*
Y94569D02*
D03*
D26*
X174982Y69000D02*
D03*
X179018D02*
D03*
D27*
X166500Y75272D02*
D03*
X171500D02*
D03*
X176500D02*
D03*
X181500D02*
D03*
X166500Y96728D02*
D03*
X171500D02*
D03*
X176500D02*
D03*
X181500D02*
D03*
D28*
X254000Y91000D02*
D03*
Y95331D02*
D03*
X244000Y90669D02*
D03*
Y95000D02*
D03*
X264000Y90835D02*
D03*
Y95165D02*
D03*
X215500Y51669D02*
D03*
Y56000D02*
D03*
X224500Y43669D02*
D03*
Y48000D02*
D03*
X229500Y43669D02*
D03*
Y48000D02*
D03*
X187000Y83835D02*
D03*
Y88165D02*
D03*
D29*
X214724Y42835D02*
D03*
X204724D02*
D03*
X194724D02*
D03*
Y8937D02*
D03*
X204724D02*
D03*
X214724D02*
D03*
X244000Y109051D02*
D03*
X254000D02*
D03*
X264000D02*
D03*
Y142949D02*
D03*
X254000D02*
D03*
X244000D02*
D03*
D30*
X96311Y86626D02*
D03*
Y91626D02*
D03*
Y96626D02*
D03*
Y101626D02*
D03*
X76823D02*
D03*
Y96626D02*
D03*
Y91626D02*
D03*
Y86626D02*
D03*
X96630Y111000D02*
D03*
Y116000D02*
D03*
Y121000D02*
D03*
Y126000D02*
D03*
X77142D02*
D03*
Y121000D02*
D03*
Y116000D02*
D03*
Y111000D02*
D03*
D31*
X86567Y94126D02*
D03*
X86886Y118500D02*
D03*
D32*
X141311Y167366D02*
D03*
X146311D02*
D03*
X151311D02*
D03*
X156311D02*
D03*
X161311D02*
D03*
X166311D02*
D03*
X171311D02*
D03*
X176311D02*
D03*
X181311D02*
D03*
X186311D02*
D03*
Y129768D02*
D03*
X181311D02*
D03*
X176311D02*
D03*
X171311D02*
D03*
X166311D02*
D03*
X161311D02*
D03*
X156311D02*
D03*
X151311D02*
D03*
X146311D02*
D03*
X141311D02*
D03*
D33*
X226378Y159449D02*
D03*
Y168701D02*
D03*
X108268Y166043D02*
D03*
Y156791D02*
D03*
X94488Y166043D02*
D03*
Y156791D02*
D03*
D34*
X216535Y168898D02*
D03*
Y161417D02*
D03*
X206693Y168898D02*
D03*
Y161417D02*
D03*
X196850Y168898D02*
D03*
Y161417D02*
D03*
D35*
X205748Y130000D02*
D03*
X227008D02*
D03*
D36*
X150031Y78500D02*
D03*
Y83500D02*
D03*
Y88500D02*
D03*
Y93500D02*
D03*
X128969D02*
D03*
Y88500D02*
D03*
Y83500D02*
D03*
Y78500D02*
D03*
D37*
X176831Y105000D02*
D03*
X172500D02*
D03*
D64*
X118110Y171417D02*
D03*
Y161417D02*
D03*
D65*
Y151417D02*
D03*
D72*
X166000Y28000D02*
D03*
X153402D02*
D03*
Y36661D02*
D03*
X166000D02*
D03*
X153402Y19339D02*
D03*
X166000D02*
D03*
Y49260D02*
D03*
X120000Y19339D02*
D03*
X132598D02*
D03*
X53402Y28000D02*
D03*
X66000D02*
D03*
X87402D02*
D03*
X100000Y36661D02*
D03*
X120000D02*
D03*
X132598D02*
D03*
X66000Y49260D02*
D03*
Y36661D02*
D03*
Y19339D02*
D03*
X53402D02*
D03*
Y36661D02*
D03*
X132598Y49260D02*
D03*
Y28000D02*
D03*
X120000D02*
D03*
X100000Y49260D02*
D03*
Y28000D02*
D03*
Y19339D02*
D03*
X87402D02*
D03*
Y36661D02*
D03*
D73*
X153402Y49260D02*
D03*
X53402D02*
D03*
X120000D02*
D03*
X87402D02*
D03*
D74*
X16772Y43839D02*
D03*
Y71398D02*
D03*
X261181Y38110D02*
D03*
D75*
X16772Y57618D02*
D03*
X56102Y162598D02*
D03*
X16772Y30059D02*
D03*
X261181Y51890D02*
D03*
D76*
X69882Y162598D02*
D03*
M02*
